<?xml version="1.0" encoding="UTF-8"?>
<!DOCTYPE svg PUBLIC "-//W3C//DTD SVG 1.1//EN" "http://www.w3.org/Graphics/SVG/1.1/DTD/svg11.dtd">
<svg xmlns="http://www.w3.org/2000/svg" version="1.1" width="256px" height="256px" style="shape-rendering:geometricPrecision; text-rendering:geometricPrecision; image-rendering:optimizeQuality; fill-rule:evenodd; clip-rule:evenodd" xmlns:xlink="http://www.w3.org/1999/xlink">
<g><path style="opacity:1" fill="#4a86a9" d="M 132.5,18.5 C 132.65,22.1612 131.15,23.1612 128,21.5C 127.647,22.6716 127.813,23.8382 128.5,25C 128.133,27.2442 127.133,27.7442 125.5,26.5C 124.167,27.1667 122.833,27.8333 121.5,28.5C 121.167,28 120.833,27.5 120.5,27C 121.687,24.2764 122.353,21.4431 122.5,18.5C 125.846,-0.159835 129.18,-0.159835 132.5,18.5 Z"/></g>
<g><path style="opacity:0.057" fill="#4c6b84" d="M 175.5,31.5 C 174.25,31.5774 173.417,32.244 173,33.5C 165.414,30.9672 157.58,29.9672 149.5,30.5C 149.842,29.6618 150.508,29.3284 151.5,29.5C 156.833,29.5 162.167,29.5 167.5,29.5C 167.739,27.5328 167.406,25.6995 166.5,24C 161.833,23.3333 157.167,23.3333 152.5,24C 148.28,25.3417 143.947,26.175 139.5,26.5C 139.5,22.1667 139.5,17.8333 139.5,13.5C 145.654,13.0367 151.82,12.7034 158,12.5C 172.953,10.3992 178.787,16.7325 175.5,31.5 Z"/></g>
<g><path style="opacity:0.004" fill="#00030d" d="M 110.5,23.5 C 110.897,22.475 111.563,22.3083 112.5,23C 111.906,23.4643 111.239,23.631 110.5,23.5 Z"/></g>
<g><path style="opacity:0.533" fill="#031531" d="M 121.5,-0.5 C 125.5,-0.5 129.5,-0.5 133.5,-0.5C 135.77,3.89257 137.437,8.55924 138.5,13.5C 137.229,16.3429 136.396,19.3429 136,22.5C 135.617,23.056 135.117,23.3893 134.5,23.5C 134.204,21.597 133.537,19.9303 132.5,18.5C 129.18,-0.159835 125.846,-0.159835 122.5,18.5C 120.928,21.2154 119.928,24.2154 119.5,27.5C 117.549,28.2823 116.049,29.6156 115,31.5C 113.057,30.193 111.223,30.193 109.5,31.5C 90.2823,35.5256 73.4489,44.1923 59,57.5C 41.4111,44.6398 40.2444,45.9731 55.5,61.5C 52.0804,64.6946 49.4137,68.3612 47.5,72.5C 43.6661,77.497 40.3328,82.8303 37.5,88.5C 37.3415,84.183 37.3415,79.8496 37.5,75.5C 37.8923,73.8211 38.3923,72.1545 39,70.5C 41.6566,67.8534 43.8232,64.8534 45.5,61.5C 40.7778,58.0608 38.1111,53.3941 37.5,47.5C 38.8693,42.312 42.2027,40.4787 47.5,42C 50.9958,42.6558 53.9958,44.1558 56.5,46.5C 55.3336,48.166 55.3336,49.8327 56.5,51.5C 59.8753,50.2936 62.8753,48.4602 65.5,46C 66.7932,45.51 68.1266,45.3433 69.5,45.5C 69.281,44.325 69.6143,43.325 70.5,42.5C 77.099,39.2049 83.099,35.2049 88.5,30.5C 90.921,29.1086 93.5877,28.2752 96.5,28C 97.6667,27.5 98.5,26.6667 99,25.5C 99.7247,26.0585 100.558,26.3918 101.5,26.5C 103.915,25.701 106.415,24.701 109,23.5C 110.356,24.3802 111.856,24.7135 113.5,24.5C 115.407,15.8572 118.073,7.52386 121.5,-0.5 Z"/></g>
<g><path style="opacity:0.949" fill="#324a6e" d="M 138.5,13.5 C 138.833,13.5 139.167,13.5 139.5,13.5C 139.5,17.8333 139.5,22.1667 139.5,26.5C 139.5,26.8333 139.5,27.1667 139.5,27.5C 138.167,27.8333 136.833,28.1667 135.5,28.5C 134.699,26.9582 134.366,25.2915 134.5,23.5C 135.117,23.3893 135.617,23.056 136,22.5C 136.396,19.3429 137.229,16.3429 138.5,13.5 Z"/></g>
<g><path style="opacity:0.742" fill="#5e86a6" d="M 151.5,29.5 C 151.611,28.8826 151.944,28.3826 152.5,28C 156.541,27.8265 160.541,27.3265 164.5,26.5C 162.5,26.1667 160.5,25.8333 158.5,25.5C 152.259,26.8908 145.926,27.5575 139.5,27.5C 139.5,27.1667 139.5,26.8333 139.5,26.5C 143.947,26.175 148.28,25.3417 152.5,24C 157.167,23.3333 161.833,23.3333 166.5,24C 167.406,25.6995 167.739,27.5328 167.5,29.5C 162.167,29.5 156.833,29.5 151.5,29.5 Z"/></g>
<g><path style="opacity:1" fill="#426a8b" d="M 122.5,18.5 C 122.353,21.4431 121.687,24.2764 120.5,27C 120.833,27.5 121.167,28 121.5,28.5C 122.833,27.8333 124.167,27.1667 125.5,26.5C 127.133,27.7442 128.133,27.2442 128.5,25C 127.813,23.8382 127.647,22.6716 128,21.5C 131.15,23.1612 132.65,22.1612 132.5,18.5C 133.537,19.9303 134.204,21.597 134.5,23.5C 134.366,25.2915 134.699,26.9582 135.5,28.5C 131.566,31.2546 127.733,34.2546 124,37.5C 121.713,40.0722 120.547,43.0722 120.5,46.5C 117.134,49.4152 113.468,52.0819 109.5,54.5C 109.5,54.1667 109.5,53.8333 109.5,53.5C 112.797,44.8918 116.13,36.2251 119.5,27.5C 119.928,24.2154 120.928,21.2154 122.5,18.5 Z"/></g>
<g><path style="opacity:1" fill="#799bab" d="M 145.5,31.5 C 142.48,34.5162 139.146,37.1829 135.5,39.5C 137.893,35.7858 141.226,33.1191 145.5,31.5 Z"/></g>
<g><path style="opacity:1" fill="#b9d2d6" d="M 151.5,29.5 C 150.508,29.3284 149.842,29.6618 149.5,30.5C 148.167,30.8333 146.833,31.1667 145.5,31.5C 141.226,33.1191 137.893,35.7858 135.5,39.5C 132.167,40.8333 129.833,43.1667 128.5,46.5C 126.013,50.4812 124.346,54.8146 123.5,59.5C 122.678,61.3885 121.845,63.3885 121,65.5C 119.676,61.5537 119.009,57.5537 119,53.5C 119.862,55.087 120.529,56.7536 121,58.5C 120.983,54.5246 120.816,50.5246 120.5,46.5C 120.547,43.0722 121.713,40.0722 124,37.5C 127.733,34.2546 131.566,31.2546 135.5,28.5C 136.833,28.1667 138.167,27.8333 139.5,27.5C 145.926,27.5575 152.259,26.8908 158.5,25.5C 160.5,25.8333 162.5,26.1667 164.5,26.5C 160.541,27.3265 156.541,27.8265 152.5,28C 151.944,28.3826 151.611,28.8826 151.5,29.5 Z"/></g>
<g><path style="opacity:0.081" fill="#030c22" d="M 88.5,30.5 C 83.099,35.2049 77.099,39.2049 70.5,42.5C 69.6143,43.325 69.281,44.325 69.5,45.5C 68.1266,45.3433 66.7932,45.51 65.5,46C 62.8753,48.4602 59.8753,50.2936 56.5,51.5C 55.3336,49.8327 55.3336,48.166 56.5,46.5C 58.1667,46.5 59.8333,46.5 61.5,46.5C 61.5,45.1667 61.5,43.8333 61.5,42.5C 63.2012,42.0338 64.7012,42.0338 66,42.5C 67.4813,41.5291 68.3146,40.1958 68.5,38.5C 69.1499,38.8039 69.8165,39.1373 70.5,39.5C 70.6399,38.2361 70.6399,37.0695 70.5,36C 72.108,35.342 73.2747,35.842 74,37.5C 74.9147,36.6721 75.5814,35.6721 76,34.5C 77.016,35.6341 77.6827,35.3008 78,33.5C 78.3333,33.8333 78.6667,34.1667 79,34.5C 80.0674,33.8095 81.2341,33.3095 82.5,33C 82.9302,32.0805 83.2635,31.2472 83.5,30.5C 85.0026,31.0522 86.6693,31.0522 88.5,30.5 Z"/></g>
<g><path style="opacity:0.004" fill="#00030d" d="M 68.5,38.5 C 67.8333,37.1667 67.8333,37.1667 68.5,38.5 Z"/></g>
<g><path style="opacity:0.297" fill="#4e6a82" d="M 182.5,33.5 C 193.053,33.2198 202.719,35.8865 211.5,41.5C 210.432,42.4345 209.099,42.7678 207.5,42.5C 204.9,43.9188 202.4,45.5854 200,47.5C 199.51,48.7932 199.343,50.1266 199.5,51.5C 194.149,49.5732 188.815,47.9065 183.5,46.5C 184.167,46.5 184.833,46.5 185.5,46.5C 186.675,46.719 187.675,46.3857 188.5,45.5C 185.015,42.516 181.682,39.3493 178.5,36C 180.437,35.8784 181.77,35.045 182.5,33.5 Z"/></g>
<g><path style="opacity:1" fill="#051936" d="M 107.5,34.5 C 109.5,34.5 111.5,34.5 113.5,34.5C 113.579,37.2706 113.079,39.9373 112,42.5C 111.346,43.6956 110.846,43.6956 110.5,42.5C 111.735,40.6837 111.735,39.017 110.5,37.5C 106.583,37.9756 102.916,38.9756 99.5,40.5C 85.9925,44.2515 74.3258,51.0849 64.5,61C 63.552,61.4828 62.552,61.6495 61.5,61.5C 62.0913,58.3864 63.758,55.8864 66.5,54C 78.6158,44.2758 92.2824,37.7758 107.5,34.5 Z"/></g>
<g><path style="opacity:0.004" fill="#00030d" d="M 59.5,43.5 C 60.8333,44.1667 60.8333,44.1667 59.5,43.5 Z"/></g>
<g><path style="opacity:1" fill="#789aac" d="M 135.5,39.5 C 133.5,42.1667 131.167,44.5 128.5,46.5C 129.833,43.1667 132.167,40.8333 135.5,39.5 Z"/></g>
<g><path style="opacity:0.332" fill="#112239" d="M 211.5,41.5 C 215.59,42.0021 217.59,44.3355 217.5,48.5C 215.517,54.6741 211.184,57.6741 204.5,57.5C 204.5,57.1667 204.5,56.8333 204.5,56.5C 206.666,54.1633 208.666,51.6633 210.5,49C 208.305,48.5906 206.305,49.0906 204.5,50.5C 203.402,49.3991 203.235,48.0657 204,46.5C 205.376,45.2949 206.542,43.9616 207.5,42.5C 209.099,42.7678 210.432,42.4345 211.5,41.5 Z"/></g>
<g><path style="opacity:1" fill="#d5e3e6" d="M 173.5,46.5 C 176.833,46.5 180.167,46.5 183.5,46.5C 188.815,47.9065 194.149,49.5732 199.5,51.5C 199.833,52.5 200.5,53.1667 201.5,53.5C 202.167,54.8333 203.167,55.8333 204.5,56.5C 204.5,56.8333 204.5,57.1667 204.5,57.5C 205.141,58.4822 205.807,59.4822 206.5,60.5C 206.043,61.2975 205.376,61.6309 204.5,61.5C 203.5,60.8333 202.5,60.1667 201.5,59.5C 201.047,58.5416 200.381,57.7083 199.5,57C 196.24,55.525 192.907,54.3584 189.5,53.5C 177.219,51.4817 165.552,53.4817 154.5,59.5C 150.111,61.1916 145.778,63.1916 141.5,65.5C 139.085,65.6265 136.751,65.7932 134.5,66C 136.439,64.5679 137.772,62.7346 138.5,60.5C 148.752,52.351 160.418,47.6844 173.5,46.5 Z"/></g>
<g><path style="opacity:0.971" fill="#2b405d" d="M 207.5,42.5 C 206.542,43.9616 205.376,45.2949 204,46.5C 203.235,48.0657 203.402,49.3991 204.5,50.5C 203.833,51.8333 202.833,52.8333 201.5,53.5C 200.5,53.1667 199.833,52.5 199.5,51.5C 199.343,50.1266 199.51,48.7932 200,47.5C 202.4,45.5854 204.9,43.9188 207.5,42.5 Z"/></g>
<g><path style="opacity:1" fill="#427598" d="M 110.5,37.5 C 109.63,41.5774 108.463,45.5774 107,49.5C 101.623,51.5615 96.4562,53.8949 91.5,56.5C 86.4734,58.6834 81.8067,61.5168 77.5,65C 73.631,69.037 69.631,72.8704 65.5,76.5C 62.9688,77.0303 60.9688,78.3637 59.5,80.5C 58.914,80.2907 58.414,79.9574 58,79.5C 54.8819,82.4422 52.3819,82.1088 50.5,78.5C 51.4746,76.2048 52.8079,74.2048 54.5,72.5C 55.3402,74.7856 56.8402,75.119 59,73.5C 60.8261,72.9896 60.9928,72.1562 59.5,71C 61.4211,70.6397 63.0878,69.8064 64.5,68.5C 65.086,68.7093 65.586,69.0426 66,69.5C 67.6667,67.8333 69.3333,66.1667 71,64.5C 71.3333,64.8333 71.6667,65.1667 72,65.5C 79.8676,59.1401 88.2009,53.8068 97,49.5C 97.2022,47.7444 97.7022,46.0777 98.5,44.5C 99.451,45.3256 100.451,45.4922 101.5,45C 107.436,39.9621 106.769,38.4621 99.5,40.5C 102.916,38.9756 106.583,37.9756 110.5,37.5 Z"/></g>
<g><path style="opacity:1" fill="#395574" d="M 149.5,30.5 C 157.58,29.9672 165.414,30.9672 173,33.5C 173.417,32.244 174.25,31.5774 175.5,31.5C 177.609,32.5314 179.943,33.1981 182.5,33.5C 181.77,35.045 180.437,35.8784 178.5,36C 181.682,39.3493 185.015,42.516 188.5,45.5C 187.675,46.3857 186.675,46.719 185.5,46.5C 182.826,42.1629 179.493,38.4962 175.5,35.5C 167.809,32.425 159.809,31.2583 151.5,32C 152.044,32.7172 152.711,33.2172 153.5,33.5C 150.695,34.3195 147.695,34.8195 144.5,35C 143.667,36.5 142.5,37.6667 141,38.5C 140.506,40.1341 140.34,41.8008 140.5,43.5C 139.368,46.9262 137.368,49.7595 134.5,52C 139.5,51.1742 144.5,51.3409 149.5,52.5C 149.5,51.1667 149.5,49.8333 149.5,48.5C 154.629,46.5511 159.962,45.2178 165.5,44.5C 168.022,45.762 170.689,46.4287 173.5,46.5C 160.418,47.6844 148.752,52.351 138.5,60.5C 137.833,60.5 137.167,60.5 136.5,60.5C 132.567,57.3714 130.233,58.3714 129.5,63.5C 125.145,65.8193 123.145,64.486 123.5,59.5C 124.346,54.8146 126.013,50.4812 128.5,46.5C 131.167,44.5 133.5,42.1667 135.5,39.5C 139.146,37.1829 142.48,34.5162 145.5,31.5C 146.833,31.1667 148.167,30.8333 149.5,30.5 Z"/></g>
<g><path style="opacity:0.916" fill="#2c476c" d="M 175.5,35.5 C 179.493,38.4962 182.826,42.1629 185.5,46.5C 184.833,46.5 184.167,46.5 183.5,46.5C 180.167,46.5 176.833,46.5 173.5,46.5C 170.689,46.4287 168.022,45.762 165.5,44.5C 159.962,45.2178 154.629,46.5511 149.5,48.5C 149.5,49.8333 149.5,51.1667 149.5,52.5C 144.5,51.3409 139.5,51.1742 134.5,52C 137.368,49.7595 139.368,46.9262 140.5,43.5C 141.725,44.937 142.725,46.6036 143.5,48.5C 144.325,49.3857 145.325,49.719 146.5,49.5C 146.459,45.3837 145.793,41.3837 144.5,37.5C 146.216,37.6287 147.883,37.962 149.5,38.5C 153.11,39.7033 156.777,40.7033 160.5,41.5C 163.191,43.5962 166.191,43.9295 169.5,42.5C 168.833,41.8333 168.167,41.1667 167.5,40.5C 167.624,39.8933 167.957,39.56 168.5,39.5C 170.607,40.3004 172.774,40.9671 175,41.5C 175.833,41.1667 176.667,40.8333 177.5,40.5C 176.544,38.9246 175.877,37.258 175.5,35.5 Z"/></g>
<g><path style="opacity:1" fill="#203860" d="M 153.5,33.5 C 158.896,34.7046 163.896,36.7046 168.5,39.5C 167.957,39.56 167.624,39.8933 167.5,40.5C 168.167,41.1667 168.833,41.8333 169.5,42.5C 166.191,43.9295 163.191,43.5962 160.5,41.5C 162.527,41.6621 164.527,41.4955 166.5,41C 161.307,37.7833 155.64,35.95 149.5,35.5C 149.5,36.5 149.5,37.5 149.5,38.5C 147.883,37.962 146.216,37.6287 144.5,37.5C 145.793,41.3837 146.459,45.3837 146.5,49.5C 145.325,49.719 144.325,49.3857 143.5,48.5C 142.725,46.6036 141.725,44.937 140.5,43.5C 140.34,41.8008 140.506,40.1341 141,38.5C 142.5,37.6667 143.667,36.5 144.5,35C 147.695,34.8195 150.695,34.3195 153.5,33.5 Z"/></g>
<g><path style="opacity:1" fill="#0e2143" d="M 160.5,41.5 C 156.777,40.7033 153.11,39.7033 149.5,38.5C 149.5,37.5 149.5,36.5 149.5,35.5C 155.64,35.95 161.307,37.7833 166.5,41C 164.527,41.4955 162.527,41.6621 160.5,41.5 Z"/></g>
<g><path style="opacity:0.807" fill="#112346" d="M 175.5,35.5 C 175.877,37.258 176.544,38.9246 177.5,40.5C 176.667,40.8333 175.833,41.1667 175,41.5C 172.774,40.9671 170.607,40.3004 168.5,39.5C 163.896,36.7046 158.896,34.7046 153.5,33.5C 152.711,33.2172 152.044,32.7172 151.5,32C 159.809,31.2583 167.809,32.425 175.5,35.5 Z"/></g>
<g><path style="opacity:1" fill="#5f89a3" d="M 204.5,56.5 C 203.167,55.8333 202.167,54.8333 201.5,53.5C 202.833,52.8333 203.833,51.8333 204.5,50.5C 206.305,49.0906 208.305,48.5906 210.5,49C 208.666,51.6633 206.666,54.1633 204.5,56.5 Z"/></g>
<g><path style="opacity:1" fill="#93adba" d="M 189.5,53.5 C 189.167,53.5 188.833,53.5 188.5,53.5C 186.833,53.5 185.167,53.5 183.5,53.5C 180.119,53.4595 176.786,53.7929 173.5,54.5C 167.085,56.0199 160.752,57.6865 154.5,59.5C 165.552,53.4817 177.219,51.4817 189.5,53.5 Z"/></g>
<g><path style="opacity:1" fill="#45607d" d="M 188.5,53.5 C 188.833,53.5 189.167,53.5 189.5,53.5C 192.907,54.3584 196.24,55.525 199.5,57C 200.381,57.7083 201.047,58.5416 201.5,59.5C 200.596,60.209 200.263,61.209 200.5,62.5C 199.751,61.469 199.085,60.3024 198.5,59C 196.579,58.6397 194.912,57.8064 193.5,56.5C 192.893,56.6236 192.56,56.9569 192.5,57.5C 190.833,56.5 189.5,55.1667 188.5,53.5 Z"/></g>
<g><path style="opacity:0.992" fill="#16294c" d="M 119.5,27.5 C 116.13,36.2251 112.797,44.8918 109.5,53.5C 104.547,54.6502 99.88,56.4835 95.5,59C 88.9587,64.0541 82.6254,69.2208 76.5,74.5C 76.1583,73.6618 75.4916,73.3284 74.5,73.5C 81.6097,68.89 87.9431,63.39 93.5,57C 92.9056,56.5357 92.2389,56.369 91.5,56.5C 96.4562,53.8949 101.623,51.5615 107,49.5C 108.463,45.5774 109.63,41.5774 110.5,37.5C 111.735,39.017 111.735,40.6837 110.5,42.5C 110.846,43.6956 111.346,43.6956 112,42.5C 113.079,39.9373 113.579,37.2706 113.5,34.5C 111.5,34.5 109.5,34.5 107.5,34.5C 109.498,33.8525 111.498,33.0192 113.5,32C 112.207,31.51 110.873,31.3433 109.5,31.5C 111.223,30.193 113.057,30.193 115,31.5C 116.049,29.6156 117.549,28.2823 119.5,27.5 Z"/></g>
<g><path style="opacity:1" fill="#43617e" d="M 183.5,53.5 C 184.5,54.8333 185.5,56.1667 186.5,57.5C 185.448,57.3505 184.448,57.5172 183.5,58C 184.543,60.0252 184.543,62.3585 183.5,65C 184.6,67.7682 186.433,69.9349 189,71.5C 189.49,72.7932 189.657,74.1266 189.5,75.5C 188.126,75.2079 186.793,74.8746 185.5,74.5C 186.573,73.7494 186.74,72.7494 186,71.5C 181.586,67.4146 176.419,64.748 170.5,63.5C 169.766,62.2921 169.433,60.9587 169.5,59.5C 170.5,59.5 171.5,59.5 172.5,59.5C 172.366,57.7085 172.699,56.0418 173.5,54.5C 176.786,53.7929 180.119,53.4595 183.5,53.5 Z"/></g>
<g><path style="opacity:0.035" fill="#51677a" d="M 217.5,48.5 C 220.027,56.2067 220.027,63.8733 217.5,71.5C 214.775,70.287 212.441,68.4536 210.5,66C 207.16,66.1486 205.16,64.6486 204.5,61.5C 205.376,61.6309 206.043,61.2975 206.5,60.5C 205.807,59.4822 205.141,58.4822 204.5,57.5C 211.184,57.6741 215.517,54.6741 217.5,48.5 Z"/></g>
<g><path style="opacity:1" fill="#293f5b" d="M 183.5,53.5 C 185.167,53.5 186.833,53.5 188.5,53.5C 189.5,55.1667 190.833,56.5 192.5,57.5C 195.218,59.0878 195.052,60.4212 192,61.5C 190.019,60.3498 188.186,59.0165 186.5,57.5C 185.5,56.1667 184.5,54.8333 183.5,53.5 Z"/></g>
<g><path style="opacity:1" fill="#567087" d="M 173.5,54.5 C 172.699,56.0418 172.366,57.7085 172.5,59.5C 171.5,59.5 170.5,59.5 169.5,59.5C 169.433,60.9587 169.766,62.2921 170.5,63.5C 168.545,62.6765 166.545,62.5099 164.5,63C 163.295,64.3756 161.962,65.5423 160.5,66.5C 159.957,66.56 159.624,66.8933 159.5,67.5C 164.12,68.4933 168.786,68.8266 173.5,68.5C 174.492,68.3284 175.158,68.6618 175.5,69.5C 168.833,69.5 162.167,69.5 155.5,69.5C 156.5,68.1667 157.5,66.8333 158.5,65.5C 160.296,64.2073 161.963,62.7073 163.5,61C 162.833,60.8333 162.167,60.6667 161.5,60.5C 158.538,62.3181 155.538,64.1515 152.5,66C 151.207,66.49 149.873,66.6567 148.5,66.5C 145.941,66.8016 143.607,66.4682 141.5,65.5C 145.778,63.1916 150.111,61.1916 154.5,59.5C 160.752,57.6865 167.085,56.0199 173.5,54.5 Z"/></g>
<g><path style="opacity:0.964" fill="#10203c" d="M 91.5,56.5 C 92.2389,56.369 92.9056,56.5357 93.5,57C 87.9431,63.39 81.6097,68.89 74.5,73.5C 73.3263,74.5137 72.6596,75.847 72.5,77.5C 72.8432,79.4832 72.1765,80.8166 70.5,81.5C 69.4702,84.9502 68.1369,88.2835 66.5,91.5C 66.2391,87.658 66.9058,83.9913 68.5,80.5C 67.3112,79.5713 65.9778,79.238 64.5,79.5C 64.5569,78.391 64.8902,77.391 65.5,76.5C 69.631,72.8704 73.631,69.037 77.5,65C 81.8067,61.5168 86.4734,58.6834 91.5,56.5 Z"/></g>
<g><path style="opacity:1" fill="#4c88a6" d="M 109.5,31.5 C 110.873,31.3433 112.207,31.51 113.5,32C 111.498,33.0192 109.498,33.8525 107.5,34.5C 92.2824,37.7758 78.6158,44.2758 66.5,54C 63.758,55.8864 62.0913,58.3864 61.5,61.5C 62.552,61.6495 63.552,61.4828 64.5,61C 74.3258,51.0849 85.9925,44.2515 99.5,40.5C 106.769,38.4621 107.436,39.9621 101.5,45C 100.451,45.4922 99.451,45.3256 98.5,44.5C 97.7022,46.0777 97.2022,47.7444 97,49.5C 88.2009,53.8068 79.8676,59.1401 72,65.5C 71.6667,65.1667 71.3333,64.8333 71,64.5C 69.3333,66.1667 67.6667,67.8333 66,69.5C 65.586,69.0426 65.086,68.7093 64.5,68.5C 63.0878,69.8064 61.4211,70.6397 59.5,71C 60.9928,72.1562 60.8261,72.9896 59,73.5C 56.8402,75.119 55.3402,74.7856 54.5,72.5C 55.9117,70.0199 57.5784,67.6866 59.5,65.5C 59.1667,64.5 58.5,63.8333 57.5,63.5C 54.1285,66.8706 51.1285,70.5373 48.5,74.5C 47.6618,74.1583 47.3284,73.4916 47.5,72.5C 49.4137,68.3612 52.0804,64.6946 55.5,61.5C 40.2444,45.9731 41.4111,44.6398 59,57.5C 73.4489,44.1923 90.2823,35.5256 109.5,31.5 Z"/></g>
<g><path style="opacity:0.761" fill="#324a6b" d="M 109.5,53.5 C 109.5,53.8333 109.5,54.1667 109.5,54.5C 108.094,54.9731 107.427,55.9731 107.5,57.5C 99.0698,59.452 92.0698,63.7853 86.5,70.5C 85.2638,71.2458 83.9305,71.5792 82.5,71.5C 82.5,72.5 82.5,73.5 82.5,74.5C 81.609,75.1098 80.609,75.4431 79.5,75.5C 78.209,75.7373 77.209,75.404 76.5,74.5C 82.6254,69.2208 88.9587,64.0541 95.5,59C 99.88,56.4835 104.547,54.6502 109.5,53.5 Z"/></g>
<g><path style="opacity:1" fill="#cadade" d="M 136.5,60.5 C 135.078,62.5117 133.745,64.5117 132.5,66.5C 127.264,70.8905 126.264,69.8905 129.5,63.5C 130.233,58.3714 132.567,57.3714 136.5,60.5 Z"/></g>
<g><path style="opacity:1" fill="#dce5e8" d="M 170.5,63.5 C 176.419,64.748 181.586,67.4146 186,71.5C 186.74,72.7494 186.573,73.7494 185.5,74.5C 183.664,72.412 181.331,71.0787 178.5,70.5C 177.791,69.596 176.791,69.2627 175.5,69.5C 175.158,68.6618 174.492,68.3284 173.5,68.5C 169.167,67.8333 164.833,67.1667 160.5,66.5C 161.962,65.5423 163.295,64.3756 164.5,63C 166.545,62.5099 168.545,62.6765 170.5,63.5 Z"/></g>
<g><path style="opacity:1" fill="#567288" d="M 120.5,46.5 C 120.816,50.5246 120.983,54.5246 121,58.5C 120.529,56.7536 119.862,55.087 119,53.5C 119.009,57.5537 119.676,61.5537 121,65.5C 121.845,63.3885 122.678,61.3885 123.5,59.5C 123.145,64.486 125.145,65.8193 129.5,63.5C 126.264,69.8905 127.264,70.8905 132.5,66.5C 134.306,67.0241 135.972,67.6908 137.5,68.5C 129.544,70.3741 121.877,73.0407 114.5,76.5C 113.494,76.0623 113.494,75.3957 114.5,74.5C 117.585,74.582 119.252,73.082 119.5,70C 118.066,64.5896 117.399,59.0896 117.5,53.5C 113.964,54.3795 110.631,55.7128 107.5,57.5C 107.427,55.9731 108.094,54.9731 109.5,54.5C 113.468,52.0819 117.134,49.4152 120.5,46.5 Z"/></g>
<g><path style="opacity:1" fill="#758fa0" d="M 136.5,60.5 C 137.167,60.5 137.833,60.5 138.5,60.5C 137.772,62.7346 136.439,64.5679 134.5,66C 136.751,65.7932 139.085,65.6265 141.5,65.5C 143.607,66.4682 145.941,66.8016 148.5,66.5C 144.979,67.3069 141.312,67.9736 137.5,68.5C 135.972,67.6908 134.306,67.0241 132.5,66.5C 133.745,64.5117 135.078,62.5117 136.5,60.5 Z"/></g>
<g><path style="opacity:1" fill="#a7bdc5" d="M 158.5,65.5 C 157.5,66.8333 156.5,68.1667 155.5,69.5C 153.973,69.427 152.973,70.0937 152.5,71.5C 150.313,72.758 147.98,73.758 145.5,74.5C 149.553,71.1173 153.886,68.1173 158.5,65.5 Z"/></g>
<g><path style="opacity:1" fill="#cddfe2" d="M 114.5,74.5 C 111.91,75.1283 109.577,76.295 107.5,78C 106.262,78.69 106.262,79.19 107.5,79.5C 107.44,80.0431 107.107,80.3764 106.5,80.5C 105.719,79.2713 105.219,77.938 105,76.5C 104.308,77.0253 103.808,77.6919 103.5,78.5C 95.0094,82.5782 86.6761,86.9116 78.5,91.5C 77.1993,89.556 76.1993,87.556 75.5,85.5C 75.7312,81.7073 77.0645,78.3739 79.5,75.5C 80.609,75.4431 81.609,75.1098 82.5,74.5C 85.6887,72.7401 89.0221,71.2401 92.5,70C 96.8145,64.8382 101.814,60.6715 107.5,57.5C 110.631,55.7128 113.964,54.3795 117.5,53.5C 117.399,59.0896 118.066,64.5896 119.5,70C 119.252,73.082 117.585,74.582 114.5,74.5 Z"/></g>
<g><path style="opacity:1" fill="#99afba" d="M 160.5,66.5 C 164.833,67.1667 169.167,67.8333 173.5,68.5C 168.786,68.8266 164.12,68.4933 159.5,67.5C 159.624,66.8933 159.957,66.56 160.5,66.5 Z"/></g>
<g><path style="opacity:0.931" fill="#4a637c" d="M 107.5,57.5 C 101.814,60.6715 96.8145,64.8382 92.5,70C 89.0221,71.2401 85.6887,72.7401 82.5,74.5C 82.5,73.5 82.5,72.5 82.5,71.5C 83.9305,71.5792 85.2638,71.2458 86.5,70.5C 92.0698,63.7853 99.0698,59.452 107.5,57.5 Z"/></g>
<g><path style="opacity:0.799" fill="#0f1e2d" d="M 201.5,59.5 C 202.5,60.1667 203.5,60.8333 204.5,61.5C 205.16,64.6486 207.16,66.1486 210.5,66C 212.441,68.4536 214.775,70.287 217.5,71.5C 217.5,71.8333 217.5,72.1667 217.5,72.5C 214.872,72.9498 212.539,73.9498 210.5,75.5C 207.882,70.5869 204.548,66.2535 200.5,62.5C 200.263,61.209 200.596,60.209 201.5,59.5 Z"/></g>
<g><path style="opacity:0.77" fill="#3f556c" d="M 155.5,69.5 C 162.167,69.5 168.833,69.5 175.5,69.5C 176.791,69.2627 177.791,69.596 178.5,70.5C 174.71,71.2909 172.71,73.6242 172.5,77.5C 175.315,76.8736 177.815,75.5402 180,73.5C 181.022,74.354 181.855,75.354 182.5,76.5C 180.144,79.1864 177.811,81.853 175.5,84.5C 171.603,83.9448 167.937,82.9448 164.5,81.5C 163.661,77.7179 161.495,76.7179 158,78.5C 156.14,76.7991 153.973,75.7991 151.5,75.5C 151.433,74.0413 151.766,72.7079 152.5,71.5C 152.973,70.0937 153.973,69.427 155.5,69.5 Z"/></g>
<g><path style="opacity:1" fill="#dbe6e8" d="M 158.5,65.5 C 153.886,68.1173 149.553,71.1173 145.5,74.5C 141.402,76.8728 137.068,78.8728 132.5,80.5C 123.914,83.4595 115.914,87.4595 108.5,92.5C 105.68,95.0807 102.346,96.9141 98.5,98C 94.5904,102.255 89.9237,105.255 84.5,107C 82.6575,109.074 80.6575,110.907 78.5,112.5C 70.5655,115.953 63.5655,120.62 57.5,126.5C 55.6397,127.939 53.973,129.605 52.5,131.5C 51.8333,131.5 51.5,131.833 51.5,132.5C 50.4017,131.399 50.235,130.066 51,128.5C 53.9246,122.315 57.0913,116.315 60.5,110.5C 64.8314,106.337 69.3314,102.337 74,98.5C 74.1753,93.9805 74.6753,89.6472 75.5,85.5C 76.1993,87.556 77.1993,89.556 78.5,91.5C 86.6761,86.9116 95.0094,82.5782 103.5,78.5C 103.808,77.6919 104.308,77.0253 105,76.5C 105.219,77.938 105.719,79.2713 106.5,80.5C 107.107,80.3764 107.44,80.0431 107.5,79.5C 110.157,79.0652 112.491,78.0652 114.5,76.5C 121.877,73.0407 129.544,70.3741 137.5,68.5C 141.312,67.9736 144.979,67.3069 148.5,66.5C 149.873,66.6567 151.207,66.49 152.5,66C 155.538,64.1515 158.538,62.3181 161.5,60.5C 162.167,60.6667 162.833,60.8333 163.5,61C 161.963,62.7073 160.296,64.2073 158.5,65.5 Z"/></g>
<g><path style="opacity:1" fill="#517690" d="M 192.5,57.5 C 192.56,56.9569 192.893,56.6236 193.5,56.5C 194.912,57.8064 196.579,58.6397 198.5,59C 199.085,60.3024 199.751,61.469 200.5,62.5C 204.548,66.2535 207.882,70.5869 210.5,75.5C 211.529,77.5168 212.529,79.5168 213.5,81.5C 213.672,82.4916 213.338,83.1583 212.5,83.5C 208.957,75.7514 203.957,69.0848 197.5,63.5C 195.899,64.0347 195.399,65.0347 196,66.5C 199.239,69.9829 202.239,73.6496 205,77.5C 206.705,79.5766 207.872,81.91 208.5,84.5C 208.291,85.9217 207.791,87.255 207,88.5C 203.666,86.9578 200.166,85.9578 196.5,85.5C 193.677,82.5249 191.344,79.1916 189.5,75.5C 189.657,74.1266 189.49,72.7932 189,71.5C 186.433,69.9349 184.6,67.7682 183.5,65C 184.543,62.3585 184.543,60.0252 183.5,58C 184.448,57.5172 185.448,57.3505 186.5,57.5C 188.186,59.0165 190.019,60.3498 192,61.5C 195.052,60.4212 195.218,59.0878 192.5,57.5 Z"/></g>
<g><path style="opacity:1" fill="#a1b9c2" d="M 114.5,74.5 C 113.494,75.3957 113.494,76.0623 114.5,76.5C 112.491,78.0652 110.157,79.0652 107.5,79.5C 106.262,79.19 106.262,78.69 107.5,78C 109.577,76.295 111.91,75.1283 114.5,74.5 Z"/></g>
<g><path style="opacity:1" fill="#ebeeee" d="M 164.5,81.5 C 167.937,82.9448 171.603,83.9448 175.5,84.5C 178.833,86.5 182.167,88.5 185.5,90.5C 181.429,91.1767 177.429,92.1767 173.5,93.5C 172.833,94.1667 172.167,94.8333 171.5,95.5C 170.167,95.5 168.833,95.5 167.5,95.5C 160.748,97.307 154.081,99.307 147.5,101.5C 147.5,102.167 147.167,102.5 146.5,102.5C 145.527,102.987 144.527,103.487 143.5,104C 148.489,104.499 153.489,104.666 158.5,104.5C 160.139,106.806 162.139,108.806 164.5,110.5C 164.5,110.833 164.5,111.167 164.5,111.5C 157.521,116.136 150.521,120.803 143.5,125.5C 135.869,129.277 128.869,134.11 122.5,140C 121.207,140.49 119.873,140.657 118.5,140.5C 116.914,139.852 115.247,139.352 113.5,139C 118.876,135.761 124.542,133.095 130.5,131C 131.252,130.329 131.586,129.496 131.5,128.5C 135.084,122.578 137.584,116.245 139,109.5C 137.667,110.167 136.667,111.167 136,112.5C 135.114,120.237 131.614,126.237 125.5,130.5C 122.695,131.065 120.028,132.065 117.5,133.5C 112.186,133.816 108.186,136.149 105.5,140.5C 99.9285,143.068 95.5952,147.068 92.5,152.5C 89.9135,153.48 87.2469,153.813 84.5,153.5C 83.8333,153.167 83.1667,152.833 82.5,152.5C 85.8124,149.779 88.8124,146.612 91.5,143C 96.1185,140.05 100.452,136.716 104.5,133C 105.833,132.667 107.167,132.333 108.5,132C 110.05,128.949 112.383,126.782 115.5,125.5C 120.04,123.911 120.206,122.911 116,122.5C 113.198,122.32 111.031,123.32 109.5,125.5C 109.579,126.93 109.246,128.264 108.5,129.5C 105.939,130.132 103.605,131.132 101.5,132.5C 98.4557,133.85 95.4557,135.35 92.5,137C 90.5359,138.451 89.2026,140.284 88.5,142.5C 86.2729,143.401 85.2729,145.067 85.5,147.5C 83.5,147.5 81.5,147.5 79.5,147.5C 79.5,148.5 79.5,149.5 79.5,150.5C 78.1667,150.5 76.8333,150.5 75.5,150.5C 72.1511,149.831 69.4844,148.164 67.5,145.5C 70.7225,139.866 73.3891,133.866 75.5,127.5C 77.1749,125.807 78.5082,123.807 79.5,121.5C 80.1924,122.025 80.6924,122.692 81,123.5C 81.3333,121.833 81.6667,120.167 82,118.5C 82.5613,117.978 83.228,117.645 84,117.5C 86.0598,119.063 87.5598,121.063 88.5,123.5C 89.4742,121.257 89.8076,118.924 89.5,116.5C 90.2679,115.737 90.7679,114.737 91,113.5C 91.5,114.667 92.3333,115.5 93.5,116C 92.6634,117.011 92.33,118.178 92.5,119.5C 93.791,119.737 94.791,119.404 95.5,118.5C 96.8382,116.33 98.6716,114.664 101,113.5C 101.505,111.482 102.005,109.482 102.5,107.5C 104.456,105.852 106.789,105.185 109.5,105.5C 110.161,106.718 110.828,108.051 111.5,109.5C 112.625,106.546 113.625,103.546 114.5,100.5C 115.167,101.5 115.833,102.5 116.5,103.5C 118.941,99.0651 120.775,94.3984 122,89.5C 129.227,85.4238 136.727,81.9238 144.5,79C 151.267,78.8558 157.934,79.6891 164.5,81.5 Z"/></g>
<g><path style="opacity:0.843" fill="#22313e" d="M 178.5,70.5 C 181.331,71.0787 183.664,72.412 185.5,74.5C 184.307,74.9704 183.64,75.9704 183.5,77.5C 183.803,79.1143 184.47,80.4477 185.5,81.5C 186.679,84.6964 188.013,87.8631 189.5,91C 189.486,92.3847 189.152,93.5514 188.5,94.5C 188.896,91.9556 188.229,89.7889 186.5,88C 183.176,85.7524 179.509,84.5857 175.5,84.5C 177.811,81.853 180.144,79.1864 182.5,76.5C 181.855,75.354 181.022,74.354 180,73.5C 177.815,75.5402 175.315,76.8736 172.5,77.5C 172.71,73.6242 174.71,71.2909 178.5,70.5 Z"/></g>
<g><path style="opacity:1" fill="#32587e" d="M 65.5,76.5 C 64.8902,77.391 64.5569,78.391 64.5,79.5C 61.0134,83.1422 58.0134,87.1422 55.5,91.5C 52.1215,91.8533 49.1215,93.1866 46.5,95.5C 44.4501,94.9234 43.4501,93.5901 43.5,91.5C 45.0741,86.6805 47.4074,82.3472 50.5,78.5C 52.3819,82.1088 54.8819,82.4422 58,79.5C 58.414,79.9574 58.914,80.2907 59.5,80.5C 60.9688,78.3637 62.9688,77.0303 65.5,76.5 Z"/></g>
<g><path style="opacity:0.945" fill="#445c76" d="M 74.5,73.5 C 75.4916,73.3284 76.1583,73.6618 76.5,74.5C 77.209,75.404 78.209,75.7373 79.5,75.5C 77.0645,78.3739 75.7312,81.7073 75.5,85.5C 74.6753,89.6472 74.1753,93.9805 74,98.5C 69.3314,102.337 64.8314,106.337 60.5,110.5C 61.6448,107.535 62.8114,104.535 64,101.5C 70.6861,96.0006 74.1861,88.834 74.5,80C 74.3613,78.699 73.6946,77.8656 72.5,77.5C 72.6596,75.847 73.3263,74.5137 74.5,73.5 Z"/></g>
<g><path style="opacity:1" fill="#041830" d="M 54.5,72.5 C 52.8079,74.2048 51.4746,76.2048 50.5,78.5C 47.4074,82.3472 45.0741,86.6805 43.5,91.5C 41.2369,95.6255 39.5702,99.9588 38.5,104.5C 37.791,103.596 36.791,103.263 35.5,103.5C 37.9378,92.9598 42.2711,83.2931 48.5,74.5C 51.1285,70.5373 54.1285,66.8706 57.5,63.5C 58.5,63.8333 59.1667,64.5 59.5,65.5C 57.5784,67.6866 55.9117,70.0199 54.5,72.5 Z"/></g>
<g><path style="opacity:1" fill="#abbfc8" d="M 132.5,80.5 C 124.849,84.9923 116.849,88.9923 108.5,92.5C 115.914,87.4595 123.914,83.4595 132.5,80.5 Z"/></g>
<g><path style="opacity:0.004" fill="#000408" d="M 28.5,91.5 C 27.8333,92.1667 27.8333,92.1667 28.5,91.5 Z"/></g>
<g><path style="opacity:1" fill="#aab5bd" d="M 185.5,90.5 C 186.043,90.56 186.376,90.8933 186.5,91.5C 183.694,92.1676 181.028,92.8343 178.5,93.5C 178.167,93.5 177.833,93.5 177.5,93.5C 176.167,93.5 174.833,93.5 173.5,93.5C 177.429,92.1767 181.429,91.1767 185.5,90.5 Z"/></g>
<g><path style="opacity:0.763" fill="#465462" d="M 175.5,84.5 C 179.509,84.5857 183.176,85.7524 186.5,88C 188.229,89.7889 188.896,91.9556 188.5,94.5C 185.14,94.3841 181.807,94.0508 178.5,93.5C 181.028,92.8343 183.694,92.1676 186.5,91.5C 186.376,90.8933 186.043,90.56 185.5,90.5C 182.167,88.5 178.833,86.5 175.5,84.5 Z"/></g>
<g><path style="opacity:1" fill="#5d6f7e" d="M 152.5,71.5 C 151.766,72.7079 151.433,74.0413 151.5,75.5C 153.973,75.7991 156.14,76.7991 158,78.5C 161.495,76.7179 163.661,77.7179 164.5,81.5C 157.934,79.6891 151.267,78.8558 144.5,79C 136.727,81.9238 129.227,85.4238 122,89.5C 120.775,94.3984 118.941,99.0651 116.5,103.5C 115.833,102.5 115.167,101.5 114.5,100.5C 113.625,103.546 112.625,106.546 111.5,109.5C 110.828,108.051 110.161,106.718 109.5,105.5C 108.132,103.395 107.132,101.061 106.5,98.5C 101.241,101.591 96.4075,105.257 92,109.5C 90.0972,111.441 89.2639,113.774 89.5,116.5C 89.8076,118.924 89.4742,121.257 88.5,123.5C 87.5598,121.063 86.0598,119.063 84,117.5C 83.228,117.645 82.5613,117.978 82,118.5C 81.6667,120.167 81.3333,121.833 81,123.5C 80.6924,122.692 80.1924,122.025 79.5,121.5C 78.5082,123.807 77.1749,125.807 75.5,127.5C 75.0651,125.703 75.0651,123.703 75.5,121.5C 71.8455,121.942 68.1788,122.276 64.5,122.5C 69.1667,119.167 73.8333,115.833 78.5,112.5C 80.6575,110.907 82.6575,109.074 84.5,107C 89.9237,105.255 94.5904,102.255 98.5,98C 102.346,96.9141 105.68,95.0807 108.5,92.5C 116.849,88.9923 124.849,84.9923 132.5,80.5C 137.068,78.8728 141.402,76.8728 145.5,74.5C 147.98,73.758 150.313,72.758 152.5,71.5 Z"/></g>
<g><path style="opacity:1" fill="#0c1a24" d="M 212.5,83.5 C 216.588,90.6747 219.254,98.3414 220.5,106.5C 219.388,104.401 218.721,102.067 218.5,99.5C 217.5,99.5 216.5,99.5 215.5,99.5C 214.651,97.1124 213.651,94.7791 212.5,92.5C 211.674,89.5152 210.341,86.8485 208.5,84.5C 207.872,81.91 206.705,79.5766 205,77.5C 202.239,73.6496 199.239,69.9829 196,66.5C 195.399,65.0347 195.899,64.0347 197.5,63.5C 203.957,69.0848 208.957,75.7514 212.5,83.5 Z"/></g>
<g><path style="opacity:0.848" fill="#1f282b" d="M 209.5,116.5 C 205.026,115.092 200.693,113.425 196.5,111.5C 195.167,111.167 193.833,110.833 192.5,110.5C 185.894,106.77 178.894,103.77 171.5,101.5C 177.152,98.9541 182.819,96.6208 188.5,94.5C 189.152,93.5514 189.486,92.3847 189.5,91C 188.013,87.8631 186.679,84.6964 185.5,81.5C 186.222,81.9175 186.722,82.5842 187,83.5C 187.333,82.5 187.667,81.5 188,80.5C 190.858,88.2925 192.358,96.1258 192.5,104C 196.883,107.372 201.55,110.372 206.5,113C 207.71,114.039 208.71,115.206 209.5,116.5 Z"/></g>
<g><path style="opacity:1" fill="#99a5ab" d="M 167.5,95.5 C 161.389,99.0321 154.723,101.032 147.5,101.5C 154.081,99.307 160.748,97.307 167.5,95.5 Z"/></g>
<g><path style="opacity:1" fill="#5e696b" d="M 167.5,95.5 C 168.833,95.5 170.167,95.5 171.5,95.5C 168.473,97.5831 165.307,99.5831 162,101.5C 162.135,103.425 162.302,105.425 162.5,107.5C 166.277,108.994 170.277,109.661 174.5,109.5C 174.167,110.5 173.5,111.167 172.5,111.5C 169.794,111.425 167.127,111.092 164.5,110.5C 162.139,108.806 160.139,106.806 158.5,104.5C 154.5,103.833 150.5,103.167 146.5,102.5C 147.167,102.5 147.5,102.167 147.5,101.5C 154.723,101.032 161.389,99.0321 167.5,95.5 Z"/></g>
<g><path style="opacity:0.394" fill="#08151a" d="M 217.5,72.5 C 224.991,85.3624 229.324,99.6958 230.5,115.5C 237.72,116.723 244.72,118.39 251.5,120.5C 248.244,121.252 245.244,122.586 242.5,124.5C 241.5,124.5 240.5,124.5 239.5,124.5C 236.373,123.419 233.04,122.753 229.5,122.5C 228.432,121.566 227.099,121.232 225.5,121.5C 220.267,119.852 214.933,118.186 209.5,116.5C 208.71,115.206 207.71,114.039 206.5,113C 201.55,110.372 196.883,107.372 192.5,104C 192.358,96.1258 190.858,88.2925 188,80.5C 187.667,81.5 187.333,82.5 187,83.5C 186.722,82.5842 186.222,81.9175 185.5,81.5C 184.47,80.4477 183.803,79.1143 183.5,77.5C 183.64,75.9704 184.307,74.9704 185.5,74.5C 186.793,74.8746 188.126,75.2079 189.5,75.5C 191.344,79.1916 193.677,82.5249 196.5,85.5C 198.137,88.8165 199.804,92.1499 201.5,95.5C 203.293,100.045 204.793,104.712 206,109.5C 209.911,112.092 214.078,113.092 218.5,112.5C 217.606,108.136 216.606,103.803 215.5,99.5C 216.5,99.5 217.5,99.5 218.5,99.5C 218.721,102.067 219.388,104.401 220.5,106.5C 221.182,109.495 222.182,112.495 223.5,115.5C 224.265,110.452 223.765,105.452 222,100.5C 220.22,93.6134 217.387,87.2801 213.5,81.5C 212.529,79.5168 211.529,77.5168 210.5,75.5C 212.539,73.9498 214.872,72.9498 217.5,72.5 Z"/></g>
<g><path style="opacity:1" fill="#374c58" d="M 208.5,84.5 C 210.341,86.8485 211.674,89.5152 212.5,92.5C 212.5,93.5 212.5,94.5 212.5,95.5C 208.833,95.5 205.167,95.5 201.5,95.5C 199.804,92.1499 198.137,88.8165 196.5,85.5C 200.166,85.9578 203.666,86.9578 207,88.5C 207.791,87.255 208.291,85.9217 208.5,84.5 Z"/></g>
<g><path style="opacity:1" fill="#2f5175" d="M 47.5,72.5 C 47.3284,73.4916 47.6618,74.1583 48.5,74.5C 42.2711,83.2931 37.9378,92.9598 35.5,103.5C 33.9983,107.342 33.3316,111.342 33.5,115.5C 32.5,115.5 31.5,115.5 30.5,115.5C 31.8163,106.221 34.1497,97.2209 37.5,88.5C 40.3328,82.8303 43.6661,77.497 47.5,72.5 Z"/></g>
<g><path style="opacity:1" fill="#acb3b6" d="M 146.5,102.5 C 150.5,103.167 154.5,103.833 158.5,104.5C 153.489,104.666 148.489,104.499 143.5,104C 144.527,103.487 145.527,102.987 146.5,102.5 Z"/></g>
<g><path style="opacity:1" fill="#3a4447" d="M 177.5,93.5 C 177.833,93.5 178.167,93.5 178.5,93.5C 181.807,94.0508 185.14,94.3841 188.5,94.5C 182.819,96.6208 177.152,98.9541 171.5,101.5C 178.894,103.77 185.894,106.77 192.5,110.5C 191.041,110.433 189.708,110.766 188.5,111.5C 186.219,111.923 184.552,111.256 183.5,109.5C 184.85,108.176 184.683,107.176 183,106.5C 181.862,106.989 180.695,107.322 179.5,107.5C 175.119,107.628 170.785,107.295 166.5,106.5C 166.341,103.813 167.175,101.48 169,99.5C 172.305,98.1037 175.138,96.1037 177.5,93.5 Z"/></g>
<g><path style="opacity:1" fill="#2d3a3e" d="M 213.5,81.5 C 217.387,87.2801 220.22,93.6134 222,100.5C 223.765,105.452 224.265,110.452 223.5,115.5C 222.182,112.495 221.182,109.495 220.5,106.5C 219.254,98.3414 216.588,90.6747 212.5,83.5C 213.338,83.1583 213.672,82.4916 213.5,81.5 Z"/></g>
<g><path style="opacity:1" fill="#d5dde1" d="M 109.5,105.5 C 106.789,105.185 104.456,105.852 102.5,107.5C 102.225,105.242 101.225,104.908 99.5,106.5C 97.5,109.167 95.1667,111.5 92.5,113.5C 94.4755,114.749 94.8088,116.249 93.5,118C 94.0944,118.464 94.7611,118.631 95.5,118.5C 94.791,119.404 93.791,119.737 92.5,119.5C 92.33,118.178 92.6634,117.011 93.5,116C 92.3333,115.5 91.5,114.667 91,113.5C 90.7679,114.737 90.2679,115.737 89.5,116.5C 89.2639,113.774 90.0972,111.441 92,109.5C 96.4075,105.257 101.241,101.591 106.5,98.5C 107.132,101.061 108.132,103.395 109.5,105.5 Z"/></g>
<g><path style="opacity:1" fill="#2c393f" d="M 212.5,92.5 C 213.651,94.7791 214.651,97.1124 215.5,99.5C 216.606,103.803 217.606,108.136 218.5,112.5C 214.078,113.092 209.911,112.092 206,109.5C 204.793,104.712 203.293,100.045 201.5,95.5C 205.167,95.5 208.833,95.5 212.5,95.5C 212.5,94.5 212.5,93.5 212.5,92.5 Z"/></g>
<g><path style="opacity:1" fill="#697780" d="M 102.5,107.5 C 102.005,109.482 101.505,111.482 101,113.5C 98.6716,114.664 96.8382,116.33 95.5,118.5C 94.7611,118.631 94.0944,118.464 93.5,118C 94.8088,116.249 94.4755,114.749 92.5,113.5C 95.1667,111.5 97.5,109.167 99.5,106.5C 101.225,104.908 102.225,105.242 102.5,107.5 Z"/></g>
<g><path style="opacity:1" fill="#4c5658" d="M 173.5,93.5 C 174.833,93.5 176.167,93.5 177.5,93.5C 175.138,96.1037 172.305,98.1037 169,99.5C 167.175,101.48 166.341,103.813 166.5,106.5C 170.785,107.295 175.119,107.628 179.5,107.5C 178.22,108.931 176.553,109.598 174.5,109.5C 170.277,109.661 166.277,108.994 162.5,107.5C 162.302,105.425 162.135,103.425 162,101.5C 165.307,99.5831 168.473,97.5831 171.5,95.5C 172.167,94.8333 172.833,94.1667 173.5,93.5 Z"/></g>
<g><path style="opacity:0.381" fill="#051425" d="M 37.5,75.5 C 37.3415,79.8496 37.3415,84.183 37.5,88.5C 34.1497,97.2209 31.8163,106.221 30.5,115.5C 31.5,115.5 32.5,115.5 33.5,115.5C 33.3316,111.342 33.9983,107.342 35.5,103.5C 36.791,103.263 37.791,103.596 38.5,104.5C 37.6713,107.469 37.5046,110.469 38,113.5C 41.5946,112.711 45.0946,111.544 48.5,110C 50.7339,103.799 53.0672,97.6319 55.5,91.5C 58.0134,87.1422 61.0134,83.1422 64.5,79.5C 65.9778,79.238 67.3112,79.5713 68.5,80.5C 66.9058,83.9913 66.2391,87.658 66.5,91.5C 63.9321,95.9049 60.4321,99.5716 56,102.5C 53.3468,106.139 51.5134,110.139 50.5,114.5C 46.6052,115.462 42.9385,116.796 39.5,118.5C 32.6347,119.748 25.9681,121.415 19.5,123.5C 14.2075,123.74 9.20753,125.073 4.5,127.5C 6.87496,128.66 9.20829,129.66 11.5,130.5C 7.71038,130.008 7.04372,130.841 9.5,133C 7.29221,133.191 5.29221,133.691 3.5,134.5C 2.04125,134.567 0.707917,134.234 -0.5,133.5C -0.5,129.5 -0.5,125.5 -0.5,121.5C 7.68574,118.995 16.0191,116.995 24.5,115.5C 24.7715,107.471 26.4382,99.8041 29.5,92.5C 29.3764,91.8933 29.0431,91.56 28.5,91.5C 31.0487,87.0771 33.2154,82.4105 35,77.5C 35.7083,76.6195 36.5416,75.9528 37.5,75.5 Z"/></g>
<g><path style="opacity:1" fill="#2a4b6f" d="M 43.5,91.5 C 43.4501,93.5901 44.4501,94.9234 46.5,95.5C 49.1215,93.1866 52.1215,91.8533 55.5,91.5C 53.0672,97.6319 50.7339,103.799 48.5,110C 45.0946,111.544 41.5946,112.711 38,113.5C 37.5046,110.469 37.6713,107.469 38.5,104.5C 39.5702,99.9588 41.2369,95.6255 43.5,91.5 Z"/></g>
<g><path style="opacity:1" fill="#1c2c3f" d="M 70.5,81.5 C 70.5178,89.4644 67.3512,95.7977 61,100.5C 60.2021,104.715 58.3688,108.382 55.5,111.5C 54.0603,112.952 52.3936,113.952 50.5,114.5C 51.5134,110.139 53.3468,106.139 56,102.5C 60.4321,99.5716 63.9321,95.9049 66.5,91.5C 68.1369,88.2835 69.4702,84.9502 70.5,81.5 Z"/></g>
<g><path style="opacity:1" fill="#4c514d" d="M 192.5,110.5 C 193.833,110.833 195.167,111.167 196.5,111.5C 199.586,114.223 202.92,116.723 206.5,119C 205.748,119.671 205.414,120.504 205.5,121.5C 203.265,121.795 201.265,121.461 199.5,120.5C 199.771,118.62 199.104,117.287 197.5,116.5C 194.848,114.418 191.848,113.085 188.5,112.5C 188.5,112.167 188.5,111.833 188.5,111.5C 189.708,110.766 191.041,110.433 192.5,110.5 Z"/></g>
<g><path style="opacity:1" fill="#a1b2bb" d="M 78.5,112.5 C 73.8333,115.833 69.1667,119.167 64.5,122.5C 62.2048,123.475 60.2048,124.808 58.5,126.5C 58.1667,126.5 57.8333,126.5 57.5,126.5C 63.5655,120.62 70.5655,115.953 78.5,112.5 Z"/></g>
<g><path style="opacity:1" fill="#324a61" d="M 72.5,77.5 C 73.6946,77.8656 74.3613,78.699 74.5,80C 74.1861,88.834 70.6861,96.0006 64,101.5C 62.8114,104.535 61.6448,107.535 60.5,110.5C 57.0913,116.315 53.9246,122.315 51,128.5C 50.235,130.066 50.4017,131.399 51.5,132.5C 51.44,133.043 51.1067,133.376 50.5,133.5C 49.7492,132.624 49.2492,131.624 49,130.5C 48.0201,132.059 47.1867,133.726 46.5,135.5C 45.4763,136.853 44.143,137.52 42.5,137.5C 37.3245,136.387 32.3245,135.054 27.5,133.5C 33.0073,134.895 36.5073,132.895 38,127.5C 38.7412,128.641 39.5745,128.641 40.5,127.5C 43.0772,125.08 44.0772,122.08 43.5,118.5C 42.1667,118.5 40.8333,118.5 39.5,118.5C 42.9385,116.796 46.6052,115.462 50.5,114.5C 52.3936,113.952 54.0603,112.952 55.5,111.5C 58.3688,108.382 60.2021,104.715 61,100.5C 67.3512,95.7977 70.5178,89.4644 70.5,81.5C 72.1765,80.8166 72.8432,79.4832 72.5,77.5 Z"/></g>
<g><path style="opacity:1" fill="#8f9695" d="M 131.5,128.5 C 131.565,128.062 131.399,127.728 131,127.5C 129.736,129.607 127.903,130.607 125.5,130.5C 131.614,126.237 135.114,120.237 136,112.5C 136.667,111.167 137.667,110.167 139,109.5C 137.584,116.245 135.084,122.578 131.5,128.5 Z"/></g>
<g><path style="opacity:1" fill="#e8e8e5" d="M 188.5,112.5 C 191.848,113.085 194.848,114.418 197.5,116.5C 197.719,117.675 197.386,118.675 196.5,119.5C 194.098,121.009 191.765,121.342 189.5,120.5C 188.7,118.259 187.034,117.259 184.5,117.5C 184.369,114.633 185.703,112.967 188.5,112.5 Z"/></g>
<g><path style="opacity:1" fill="#787d7a" d="M 164.5,111.5 C 164.5,111.167 164.5,110.833 164.5,110.5C 167.127,111.092 169.794,111.425 172.5,111.5C 159.869,118.818 147.202,126.152 134.5,133.5C 133.262,133.19 133.262,132.69 134.5,132C 137.921,130.301 140.921,128.135 143.5,125.5C 151.279,121.558 158.946,117.391 166.5,113C 165.956,112.283 165.289,111.783 164.5,111.5 Z"/></g>
<g><path style="opacity:1" fill="#bfc2c0" d="M 164.5,111.5 C 165.289,111.783 165.956,112.283 166.5,113C 158.946,117.391 151.279,121.558 143.5,125.5C 150.521,120.803 157.521,116.136 164.5,111.5 Z"/></g>
<g><path style="opacity:1" fill="#ebebe8" d="M 183.5,109.5 C 182.833,109.5 182.5,109.833 182.5,110.5C 180.386,111.36 179.22,113.027 179,115.5C 178.501,119.486 178.334,123.486 178.5,127.5C 167.676,131.129 157.01,135.129 146.5,139.5C 138.262,142.56 130.596,146.727 123.5,152C 122.207,152.49 120.873,152.657 119.5,152.5C 119.317,154.988 118.317,156.988 116.5,158.5C 114.614,160.241 112.28,161.241 109.5,161.5C 107.955,161.489 106.622,161.156 105.5,160.5C 106.569,158.031 107.902,155.698 109.5,153.5C 112.859,150.471 116.192,147.471 119.5,144.5C 120.5,143.833 121.5,143.167 122.5,142.5C 126.538,139.488 130.538,136.488 134.5,133.5C 147.202,126.152 159.869,118.818 172.5,111.5C 173.5,111.167 174.167,110.5 174.5,109.5C 176.553,109.598 178.22,108.931 179.5,107.5C 180.695,107.322 181.862,106.989 183,106.5C 184.683,107.176 184.85,108.176 183.5,109.5 Z"/></g>
<g><path style="opacity:1" fill="#717168" d="M 183.5,109.5 C 184.552,111.256 186.219,111.923 188.5,111.5C 188.5,111.833 188.5,112.167 188.5,112.5C 185.703,112.967 184.369,114.633 184.5,117.5C 187.034,117.259 188.7,118.259 189.5,120.5C 188.761,120.369 188.094,120.536 187.5,121C 191.489,122.734 195.489,122.568 199.5,120.5C 201.265,121.461 203.265,121.795 205.5,121.5C 205.5,121.833 205.5,122.167 205.5,122.5C 202.813,122.336 200.146,122.503 197.5,123C 191.481,124.837 185.481,126.67 179.5,128.5C 178.833,128.5 178.5,128.167 178.5,127.5C 179.323,124.023 179.823,120.356 180,116.5C 180.573,114.359 181.406,112.359 182.5,110.5C 182.5,109.833 182.833,109.5 183.5,109.5 Z"/></g>
<g><path style="opacity:1" fill="#bcbcb6" d="M 197.5,116.5 C 199.104,117.287 199.771,118.62 199.5,120.5C 195.489,122.568 191.489,122.734 187.5,121C 188.094,120.536 188.761,120.369 189.5,120.5C 191.765,121.342 194.098,121.009 196.5,119.5C 197.386,118.675 197.719,117.675 197.5,116.5 Z"/></g>
<g><path style="opacity:0.489" fill="#0d1618" d="M 251.5,120.5 C 252.959,120.433 254.292,120.766 255.5,121.5C 255.5,125.5 255.5,129.5 255.5,133.5C 247.305,135.965 238.972,137.965 230.5,139.5C 228.601,159.539 221.601,177.539 209.5,193.5C 214.222,196.939 216.889,201.606 217.5,207.5C 216.417,212.378 213.417,214.211 208.5,213C 203.419,212.533 199.252,210.366 196,206.5C 180.413,220.377 162.246,228.377 141.5,230.5C 139.616,239.15 136.949,247.483 133.5,255.5C 129.5,255.5 125.5,255.5 121.5,255.5C 118.073,247.476 115.407,239.143 113.5,230.5C 92.9113,227.784 74.7446,219.784 59,206.5C 53.5146,212.221 47.0146,214.054 39.5,212C 37.1877,208.675 37.021,205.175 39,201.5C 40.8286,198.347 42.9953,195.514 45.5,193C 39.0032,183.843 33.6699,174.009 29.5,163.5C 32.0821,163.975 34.0821,163.308 35.5,161.5C 36.5,162.833 37.5,164.167 38.5,165.5C 40.1792,171.193 42.6792,176.526 46,181.5C 49.6742,185.538 52.8409,189.871 55.5,194.5C 51.3356,197.832 47.6689,201.665 44.5,206C 46.2889,206.52 47.9556,206.187 49.5,205C 52.5935,202.375 55.7602,199.875 59,197.5C 61.317,198.985 63.4836,200.652 65.5,202.5C 78.9903,215.057 94.9903,221.891 113.5,223C 111.498,221.981 109.498,221.148 107.5,220.5C 108.833,219.5 110.167,218.5 111.5,217.5C 111.5,216.5 111.5,215.5 111.5,214.5C 112.833,214.5 114.167,214.5 115.5,214.5C 116.314,218.116 117.648,221.449 119.5,224.5C 120.191,230.563 121.858,236.229 124.5,241.5C 124.441,244.962 125.441,247.962 127.5,250.5C 129.401,248.272 130.401,245.605 130.5,242.5C 132.659,236.743 134.326,230.743 135.5,224.5C 137.679,220.797 139.345,216.797 140.5,212.5C 142.663,205.837 145.663,199.504 149.5,193.5C 151.16,191.752 153.16,191.252 155.5,192C 154,194.167 152.167,196 150,197.5C 149.506,199.134 149.34,200.801 149.5,202.5C 152.127,201.908 154.794,201.575 157.5,201.5C 154.458,202.91 151.291,204.243 148,205.5C 146.119,209.307 144.953,213.307 144.5,217.5C 148.258,217.605 151.592,216.605 154.5,214.5C 161.778,213.189 168.444,210.522 174.5,206.5C 175.71,206.068 176.71,205.401 177.5,204.5C 180.135,203.189 182.469,201.522 184.5,199.5C 187.431,197.909 190.098,195.909 192.5,193.5C 194.101,194.035 194.601,195.035 194,196.5C 188.34,200.732 182.84,205.066 177.5,209.5C 166.37,215.211 154.703,219.544 142.5,222.5C 146.161,223.452 149.828,223.285 153.5,222C 162.423,219.201 170.756,215.368 178.5,210.5C 185.041,206.966 191.041,202.633 196.5,197.5C 199.5,200 202.5,202.5 205.5,205C 207.044,206.187 208.711,206.52 210.5,206C 207.153,201.989 203.82,197.989 200.5,194C 206.059,187.048 210.725,179.548 214.5,171.5C 217.266,166.883 219.266,161.883 220.5,156.5C 223.082,151.091 224.082,145.425 223.5,139.5C 222.914,139.709 222.414,140.043 222,140.5C 221.345,145.961 220.178,151.294 218.5,156.5C 216.829,161.173 215.163,165.839 213.5,170.5C 209.136,177.712 204.136,184.546 198.5,191C 197.035,191.601 196.035,191.101 195.5,189.5C 198.239,186.767 200.573,183.767 202.5,180.5C 204.192,178.795 205.525,176.795 206.5,174.5C 210.112,169.029 212.778,163.029 214.5,156.5C 216.579,151.808 217.912,146.808 218.5,141.5C 215.873,142.092 213.206,142.425 210.5,142.5C 210.286,140.856 210.62,139.356 211.5,138C 217.612,136.145 223.612,134.311 229.5,132.5C 233.04,132.247 236.373,131.581 239.5,130.5C 243.352,130.13 247.019,129.13 250.5,127.5C 247.724,126.485 245.057,125.485 242.5,124.5C 245.244,122.586 248.244,121.252 251.5,120.5 Z"/></g>
<g><path style="opacity:1" fill="#3e423d" d="M 196.5,111.5 C 200.693,113.425 205.026,115.092 209.5,116.5C 214.933,118.186 220.267,119.852 225.5,121.5C 222.834,121.933 220.168,122.433 217.5,123C 219.982,126.624 219.649,130.124 216.5,133.5C 212.177,130.315 209.677,125.982 209,120.5C 207.989,121.337 206.822,121.67 205.5,121.5C 205.414,120.504 205.748,119.671 206.5,119C 202.92,116.723 199.586,114.223 196.5,111.5 Z"/></g>
<g><path style="opacity:1" fill="#babbb7" d="M 182.5,110.5 C 181.406,112.359 180.573,114.359 180,116.5C 179.823,120.356 179.323,124.023 178.5,127.5C 178.334,123.486 178.501,119.486 179,115.5C 179.22,113.027 180.386,111.36 182.5,110.5 Z"/></g>
<g><path style="opacity:1" fill="#35587a" d="M 39.5,118.5 C 40.8333,118.5 42.1667,118.5 43.5,118.5C 44.0772,122.08 43.0772,125.08 40.5,127.5C 39.5745,128.641 38.7412,128.641 38,127.5C 36.5073,132.895 33.0073,134.895 27.5,133.5C 25.5853,133.784 23.9187,133.451 22.5,132.5C 24.288,132.785 25.9547,132.452 27.5,131.5C 24.8333,128.833 24.8333,126.167 27.5,123.5C 24.911,122.795 22.2443,122.795 19.5,123.5C 25.9681,121.415 32.6347,119.748 39.5,118.5 Z"/></g>
<g><path style="opacity:1" fill="#bcc2c4" d="M 115.5,125.5 C 113.653,124.427 111.653,124.427 109.5,125.5C 111.031,123.32 113.198,122.32 116,122.5C 120.206,122.911 120.04,123.911 115.5,125.5 Z"/></g>
<g><path style="opacity:1" fill="#4b575d" d="M 75.5,127.5 C 73.3891,133.866 70.7225,139.866 67.5,145.5C 66.5657,144.228 65.899,142.728 65.5,141C 67.0303,137.439 68.6969,133.939 70.5,130.5C 69.1667,129.167 69.1667,127.833 70.5,126.5C 70.1924,125.692 69.6924,125.025 69,124.5C 65.7154,126.137 62.2154,126.804 58.5,126.5C 60.2048,124.808 62.2048,123.475 64.5,122.5C 68.1788,122.276 71.8455,121.942 75.5,121.5C 75.0651,123.703 75.0651,125.703 75.5,127.5 Z"/></g>
<g><path style="opacity:1" fill="#77796e" d="M 239.5,124.5 C 240.5,124.5 241.5,124.5 242.5,124.5C 245.057,125.485 247.724,126.485 250.5,127.5C 247.019,129.13 243.352,130.13 239.5,130.5C 234.938,130.721 234.272,129.221 237.5,126C 237.167,125.667 236.833,125.333 236.5,125C 237.448,124.517 238.448,124.351 239.5,124.5 Z"/></g>
<g><path style="opacity:1" fill="#48749b" d="M 22.5,132.5 C 18.8333,131.833 15.1667,131.167 11.5,130.5C 9.20829,129.66 6.87496,128.66 4.5,127.5C 9.20753,125.073 14.2075,123.74 19.5,123.5C 22.2443,122.795 24.911,122.795 27.5,123.5C 24.8333,126.167 24.8333,128.833 27.5,131.5C 25.9547,132.452 24.288,132.785 22.5,132.5 Z"/></g>
<g><path style="opacity:1" fill="#4c4941" d="M 225.5,121.5 C 227.099,121.232 228.432,121.566 229.5,122.5C 227.771,123.953 226.771,125.953 226.5,128.5C 226.815,130.483 227.815,131.816 229.5,132.5C 223.612,134.311 217.612,136.145 211.5,138C 210.62,139.356 210.286,140.856 210.5,142.5C 213.206,142.425 215.873,142.092 218.5,141.5C 217.912,146.808 216.579,151.808 214.5,156.5C 212.735,155.539 210.735,155.205 208.5,155.5C 208.793,151.54 209.126,147.874 209.5,144.5C 208.5,144.5 207.5,144.5 206.5,144.5C 206.2,139.901 206.533,135.401 207.5,131C 206.872,128.061 206.205,125.228 205.5,122.5C 205.5,122.167 205.5,121.833 205.5,121.5C 206.822,121.67 207.989,121.337 209,120.5C 209.677,125.982 212.177,130.315 216.5,133.5C 219.649,130.124 219.982,126.624 217.5,123C 220.168,122.433 222.834,121.933 225.5,121.5 Z"/></g>
<g><path style="opacity:1" fill="#37444b" d="M 67.5,145.5 C 67.5,146.167 67.5,146.833 67.5,147.5C 66.1667,146.833 64.8333,146.167 63.5,145.5C 63.4212,141.397 64.0879,137.397 65.5,133.5C 64.8645,132.034 64.0312,130.7 63,129.5C 62.5172,130.448 62.3505,131.448 62.5,132.5C 59.7276,132.22 57.2276,132.887 55,134.5C 55,133.167 55,131.833 55,130.5C 54.3292,131.252 53.4959,131.586 52.5,131.5C 53.973,129.605 55.6397,127.939 57.5,126.5C 57.8333,126.5 58.1667,126.5 58.5,126.5C 62.2154,126.804 65.7154,126.137 69,124.5C 69.6924,125.025 70.1924,125.692 70.5,126.5C 69.1667,127.833 69.1667,129.167 70.5,130.5C 68.6969,133.939 67.0303,137.439 65.5,141C 65.899,142.728 66.5657,144.228 67.5,145.5 Z"/></g>
<g><path style="opacity:0.434" fill="#08151e" d="M 11.5,130.5 C 15.1667,131.167 18.8333,131.833 22.5,132.5C 23.9187,133.451 25.5853,133.784 27.5,133.5C 32.3245,135.054 37.3245,136.387 42.5,137.5C 43.5,138.167 44.5,138.833 45.5,139.5C 44.1667,139.5 42.8333,139.5 41.5,139.5C 41.5,140.5 41.5,141.5 41.5,142.5C 40.1779,142.67 39.0113,142.337 38,141.5C 37.8333,142 37.6667,142.5 37.5,143C 37.9654,148.2 39.2987,153.034 41.5,157.5C 42.129,160.397 43.129,163.064 44.5,165.5C 45.4718,168.437 46.8052,171.103 48.5,173.5C 50.0875,177.41 52.4208,180.743 55.5,183.5C 56.4151,185.754 57.7484,187.754 59.5,189.5C 59.1373,190.183 58.8039,190.85 58.5,191.5C 55.59,189.761 53.09,187.428 51,184.5C 46.3828,178.263 42.5495,171.597 39.5,164.5C 36.5589,156.342 34.2255,148.009 32.5,139.5C 32.1667,140.5 31.8333,141.5 31.5,142.5C 32.4252,148.936 33.7585,155.27 35.5,161.5C 34.0821,163.308 32.0821,163.975 29.5,163.5C 26.8853,155.707 25.2187,147.707 24.5,139.5C 17.2801,138.277 10.2801,136.61 3.5,134.5C 5.29221,133.691 7.29221,133.191 9.5,133C 7.04372,130.841 7.71038,130.008 11.5,130.5 Z"/></g>
<g><path style="opacity:1" fill="#646056" d="M 229.5,122.5 C 233.04,122.753 236.373,123.419 239.5,124.5C 238.448,124.351 237.448,124.517 236.5,125C 236.833,125.333 237.167,125.667 237.5,126C 234.272,129.221 234.938,130.721 239.5,130.5C 236.373,131.581 233.04,132.247 229.5,132.5C 227.815,131.816 226.815,130.483 226.5,128.5C 226.771,125.953 227.771,123.953 229.5,122.5 Z"/></g>
<g><path style="opacity:1" fill="#817c6b" d="M 205.5,128.5 C 202.833,130.167 202.833,131.833 205.5,133.5C 203.585,133.216 201.919,133.549 200.5,134.5C 198.194,134.993 195.861,135.326 193.5,135.5C 189.97,134.88 186.637,135.546 183.5,137.5C 182.833,137.5 182.167,137.5 181.5,137.5C 182.59,136.143 183.924,135.143 185.5,134.5C 191.566,134.62 196.9,132.787 201.5,129C 202.793,128.51 204.127,128.343 205.5,128.5 Z"/></g>
<g><path style="opacity:1" fill="#bbbdbb" d="M 117.5,133.5 C 113.24,135.3 109.24,137.633 105.5,140.5C 108.186,136.149 112.186,133.816 117.5,133.5 Z"/></g>
<g><path style="opacity:1" fill="#293742" d="M 63.5,145.5 C 62.391,145.443 61.391,145.11 60.5,144.5C 55.6973,142.232 50.6973,140.566 45.5,139.5C 44.5,138.833 43.5,138.167 42.5,137.5C 44.143,137.52 45.4763,136.853 46.5,135.5C 47.1867,133.726 48.0201,132.059 49,130.5C 49.2492,131.624 49.7492,132.624 50.5,133.5C 51.1067,133.376 51.44,133.043 51.5,132.5C 51.5,131.833 51.8333,131.5 52.5,131.5C 53.4959,131.586 54.3292,131.252 55,130.5C 55,131.833 55,133.167 55,134.5C 57.2276,132.887 59.7276,132.22 62.5,132.5C 62.3505,131.448 62.5172,130.448 63,129.5C 64.0312,130.7 64.8645,132.034 65.5,133.5C 64.0879,137.397 63.4212,141.397 63.5,145.5 Z"/></g>
<g><path style="opacity:1" fill="#b6b7b3" d="M 143.5,125.5 C 140.921,128.135 137.921,130.301 134.5,132C 133.262,132.69 133.262,133.19 134.5,133.5C 130.538,136.488 126.538,139.488 122.5,142.5C 121.167,141.833 119.833,141.167 118.5,140.5C 119.873,140.657 121.207,140.49 122.5,140C 128.869,134.11 135.869,129.277 143.5,125.5 Z"/></g>
<g><path style="opacity:1" fill="#727571" d="M 115.5,125.5 C 112.383,126.782 110.05,128.949 108.5,132C 107.167,132.333 105.833,132.667 104.5,133C 100.452,136.716 96.1185,140.05 91.5,143C 88.8124,146.612 85.8124,149.779 82.5,152.5C 80.0479,151.935 77.7146,151.268 75.5,150.5C 76.8333,150.5 78.1667,150.5 79.5,150.5C 79.5,149.5 79.5,148.5 79.5,147.5C 81.5,147.5 83.5,147.5 85.5,147.5C 85.2729,145.067 86.2729,143.401 88.5,142.5C 92.7713,138.89 97.1047,135.556 101.5,132.5C 103.605,131.132 105.939,130.132 108.5,129.5C 109.246,128.264 109.579,126.93 109.5,125.5C 111.653,124.427 113.653,124.427 115.5,125.5 Z"/></g>
<g><path style="opacity:1" fill="#6f716a" d="M 131.5,128.5 C 131.586,129.496 131.252,130.329 130.5,131C 124.542,133.095 118.876,135.761 113.5,139C 115.247,139.352 116.914,139.852 118.5,140.5C 119.833,141.167 121.167,141.833 122.5,142.5C 121.5,143.167 120.5,143.833 119.5,144.5C 118.039,143.314 116.705,143.314 115.5,144.5C 113.483,145.529 111.483,146.529 109.5,147.5C 112.543,141.87 110.876,140.204 104.5,142.5C 104.833,141.833 105.167,141.167 105.5,140.5C 109.24,137.633 113.24,135.3 117.5,133.5C 120.028,132.065 122.695,131.065 125.5,130.5C 127.903,130.607 129.736,129.607 131,127.5C 131.399,127.728 131.565,128.062 131.5,128.5 Z"/></g>
<g><path style="opacity:1" fill="#a7acac" d="M 101.5,132.5 C 97.1047,135.556 92.7713,138.89 88.5,142.5C 89.2026,140.284 90.5359,138.451 92.5,137C 95.4557,135.35 98.4557,133.85 101.5,132.5 Z"/></g>
<g><path style="opacity:1" fill="#8c877b" d="M 178.5,127.5 C 178.5,128.167 178.833,128.5 179.5,128.5C 163.645,134.629 147.978,141.462 132.5,149C 126.287,153.602 120.287,158.435 114.5,163.5C 111.713,162.523 108.713,162.19 105.5,162.5C 104.662,162.158 104.328,161.492 104.5,160.5C 104.833,160.5 105.167,160.5 105.5,160.5C 106.622,161.156 107.955,161.489 109.5,161.5C 112.28,161.241 114.614,160.241 116.5,158.5C 125.988,151.342 135.988,145.009 146.5,139.5C 157.01,135.129 167.676,131.129 178.5,127.5 Z"/></g>
<g><path style="opacity:1" fill="#273641" d="M 41.5,142.5 C 43.9925,143.774 46.6592,144.44 49.5,144.5C 50.2967,148.223 51.2967,151.89 52.5,155.5C 50.0459,155.679 47.8792,155.013 46,153.5C 44.5603,154.148 43.0603,154.481 41.5,154.5C 41.5,155.5 41.5,156.5 41.5,157.5C 39.2987,153.034 37.9654,148.2 37.5,143C 37.6667,142.5 37.8333,142 38,141.5C 39.0113,142.337 40.1779,142.67 41.5,142.5 Z"/></g>
<g><path style="opacity:1" fill="#bdbeb6" d="M 146.5,139.5 C 135.988,145.009 125.988,151.342 116.5,158.5C 118.317,156.988 119.317,154.988 119.5,152.5C 120.873,152.657 122.207,152.49 123.5,152C 130.596,146.727 138.262,142.56 146.5,139.5 Z"/></g>
<g><path style="opacity:1" fill="#98927d" d="M 204.5,142.5 C 203.89,143.391 203.557,144.391 203.5,145.5C 200.482,145.665 197.482,145.498 194.5,145C 197.557,143.236 200.89,142.402 204.5,142.5 Z"/></g>
<g><path style="opacity:1" fill="#5d5d54" d="M 109.5,147.5 C 108.34,148.265 107.34,149.265 106.5,150.5C 106.957,151.298 107.624,151.631 108.5,151.5C 108.833,152.167 109.167,152.833 109.5,153.5C 107.902,155.698 106.569,158.031 105.5,160.5C 105.167,160.5 104.833,160.5 104.5,160.5C 104.942,156.846 105.276,153.179 105.5,149.5C 101.761,150.303 98.0946,151.303 94.5,152.5C 96.8119,148.188 100.145,144.855 104.5,142.5C 110.876,140.204 112.543,141.87 109.5,147.5 Z"/></g>
<g><path style="opacity:1" fill="#64584a" d="M 205.5,122.5 C 206.205,125.228 206.872,128.061 207.5,131C 206.533,135.401 206.2,139.901 206.5,144.5C 207.5,144.5 208.5,144.5 209.5,144.5C 209.126,147.874 208.793,151.54 208.5,155.5C 210.735,155.205 212.735,155.539 214.5,156.5C 212.778,163.029 210.112,169.029 206.5,174.5C 205.829,173.153 205.829,171.986 206.5,171C 205.423,170.53 204.423,170.697 203.5,171.5C 199.496,172.006 195.829,173.34 192.5,175.5C 194.267,173.062 195.601,170.395 196.5,167.5C 197.906,167.027 198.573,166.027 198.5,164.5C 200.345,163.005 200.678,161.338 199.5,159.5C 201.282,155.371 202.282,151.038 202.5,146.5C 203.167,146.5 203.5,146.167 203.5,145.5C 203.557,144.391 203.89,143.391 204.5,142.5C 205.473,140.052 205.806,137.385 205.5,134.5C 205.5,134.167 205.5,133.833 205.5,133.5C 202.833,131.833 202.833,130.167 205.5,128.5C 205.5,126.5 205.5,124.5 205.5,122.5 Z"/></g>
<g><path style="opacity:1" fill="#4c473f" d="M 220.5,156.5 C 220.062,155.494 219.396,155.494 218.5,156.5C 220.178,151.294 221.345,145.961 222,140.5C 222.414,140.043 222.914,139.709 223.5,139.5C 224.082,145.425 223.082,151.091 220.5,156.5 Z"/></g>
<g><path style="opacity:1" fill="#d0d1ce" d="M 115.5,144.5 C 116.239,144.369 116.906,144.536 117.5,145C 114.603,147.41 111.603,149.577 108.5,151.5C 107.624,151.631 106.957,151.298 106.5,150.5C 107.34,149.265 108.34,148.265 109.5,147.5C 111.483,146.529 113.483,145.529 115.5,144.5 Z"/></g>
<g><path style="opacity:1" fill="#928f86" d="M 115.5,144.5 C 116.705,143.314 118.039,143.314 119.5,144.5C 116.192,147.471 112.859,150.471 109.5,153.5C 109.167,152.833 108.833,152.167 108.5,151.5C 111.603,149.577 114.603,147.41 117.5,145C 116.906,144.536 116.239,144.369 115.5,144.5 Z"/></g>
<g><path style="opacity:1" fill="#c0c3be" d="M 105.5,140.5 C 105.167,141.167 104.833,141.833 104.5,142.5C 100.145,144.855 96.8119,148.188 94.5,152.5C 93.3579,154.972 91.3579,155.972 88.5,155.5C 86.6203,155.771 85.287,155.104 84.5,153.5C 87.2469,153.813 89.9135,153.48 92.5,152.5C 95.5952,147.068 99.9285,143.068 105.5,140.5 Z"/></g>
<g><path style="opacity:1" fill="#293944" d="M 39.5,164.5 C 38.8333,164.5 38.5,164.833 38.5,165.5C 37.5,164.167 36.5,162.833 35.5,161.5C 33.7585,155.27 32.4252,148.936 31.5,142.5C 31.8333,141.5 32.1667,140.5 32.5,139.5C 34.2255,148.009 36.5589,156.342 39.5,164.5 Z"/></g>
<g><path style="opacity:1" fill="#e6e7e1" d="M 205.5,122.5 C 205.5,124.5 205.5,126.5 205.5,128.5C 204.127,128.343 202.793,128.51 201.5,129C 196.9,132.787 191.566,134.62 185.5,134.5C 178.883,135.975 172.883,138.808 167.5,143C 166.5,144 165.5,145 164.5,146C 165.5,146.667 166.5,146.667 167.5,146C 172.064,142.89 176.731,140.056 181.5,137.5C 182.167,137.5 182.833,137.5 183.5,137.5C 183.938,137.435 184.272,137.601 184.5,138C 183.328,138.419 182.328,139.085 181.5,140C 182,140.167 182.5,140.333 183,140.5C 186.733,139.202 190.233,137.536 193.5,135.5C 195.861,135.326 198.194,134.993 200.5,134.5C 201.552,134.351 202.552,134.517 203.5,135C 195.953,139.127 187.953,141.96 179.5,143.5C 173.729,147.034 167.395,149.2 160.5,150C 147.458,156.052 133.792,161.386 119.5,166C 114.654,168.557 109.988,171.391 105.5,174.5C 105.167,174.333 104.833,174.167 104.5,174C 105.823,173.184 106.489,172.017 106.5,170.5C 109.167,168.167 111.833,165.833 114.5,163.5C 120.287,158.435 126.287,153.602 132.5,149C 147.978,141.462 163.645,134.629 179.5,128.5C 185.481,126.67 191.481,124.837 197.5,123C 200.146,122.503 202.813,122.336 205.5,122.5 Z"/></g>
<g><path style="opacity:1" fill="#a19e91" d="M 185.5,134.5 C 183.924,135.143 182.59,136.143 181.5,137.5C 176.731,140.056 172.064,142.89 167.5,146C 166.5,146.667 165.5,146.667 164.5,146C 165.5,145 166.5,144 167.5,143C 172.883,138.808 178.883,135.975 185.5,134.5 Z"/></g>
<g><path style="opacity:1" fill="#a3a092" d="M 193.5,135.5 C 190.233,137.536 186.733,139.202 183,140.5C 182.5,140.333 182,140.167 181.5,140C 182.328,139.085 183.328,138.419 184.5,138C 184.272,137.601 183.938,137.435 183.5,137.5C 186.637,135.546 189.97,134.88 193.5,135.5 Z"/></g>
<g><path style="opacity:0.666" fill="#1d2323" d="M 60.5,144.5 C 61.391,145.11 62.391,145.443 63.5,145.5C 64.8333,146.167 66.1667,146.833 67.5,147.5C 70.4799,148.829 71.8132,151.163 71.5,154.5C 75.9726,156.049 80.6392,157.049 85.5,157.5C 85.8432,159.483 85.1765,160.817 83.5,161.5C 76.9643,160.047 70.6309,158.047 64.5,155.5C 61.1936,152.583 59.8603,148.917 60.5,144.5 Z"/></g>
<g><path style="opacity:1" fill="#4e4a3f" d="M 104.5,160.5 C 104.328,161.492 104.662,162.158 105.5,162.5C 104.551,164.737 103.884,167.071 103.5,169.5C 102.624,169.369 101.957,169.702 101.5,170.5C 99.3867,173.504 98.0534,176.837 97.5,180.5C 97.0431,181.298 96.3764,181.631 95.5,181.5C 96.6602,174.899 98.8269,168.565 102,162.5C 102.667,160.5 102.667,158.5 102,156.5C 101.481,155.484 100.647,154.818 99.5,154.5C 96.6848,155.245 93.8515,155.912 91,156.5C 89.9302,156.472 89.0968,156.139 88.5,155.5C 91.3579,155.972 93.3579,154.972 94.5,152.5C 98.0946,151.303 101.761,150.303 105.5,149.5C 105.276,153.179 104.942,156.846 104.5,160.5 Z"/></g>
<g><path style="opacity:1" fill="#35444c" d="M 52.5,155.5 C 53.8916,158.007 54.8916,160.673 55.5,163.5C 54.1266,163.657 52.7932,163.49 51.5,163C 52.6537,162.086 52.487,161.253 51,160.5C 49.3189,162.294 47.4856,162.794 45.5,162C 44.6634,163.011 44.33,164.178 44.5,165.5C 43.129,163.064 42.129,160.397 41.5,157.5C 41.5,156.5 41.5,155.5 41.5,154.5C 43.0603,154.481 44.5603,154.148 46,153.5C 47.8792,155.013 50.0459,155.679 52.5,155.5 Z"/></g>
<g><path style="opacity:1" fill="#363731" d="M 67.5,145.5 C 69.4844,148.164 72.1511,149.831 75.5,150.5C 77.7146,151.268 80.0479,151.935 82.5,152.5C 83.1667,152.833 83.8333,153.167 84.5,153.5C 85.287,155.104 86.6203,155.771 88.5,155.5C 89.0968,156.139 89.9302,156.472 91,156.5C 93.8515,155.912 96.6848,155.245 99.5,154.5C 100.647,154.818 101.481,155.484 102,156.5C 102.667,158.5 102.667,160.5 102,162.5C 98.8269,168.565 96.6602,174.899 95.5,181.5C 93.9249,183.525 92.0916,185.525 90,187.5C 89.8236,190.882 89.3236,194.215 88.5,197.5C 87.2613,197.058 86.2613,196.391 85.5,195.5C 86.3764,195.631 87.0431,195.298 87.5,194.5C 85.4237,189.48 86.5903,185.48 91,182.5C 92.7275,179.382 93.5608,176.049 93.5,172.5C 90.7628,172.401 88.0961,172.735 85.5,173.5C 83.9699,171.654 81.9699,170.654 79.5,170.5C 81.6435,167.878 82.9769,164.878 83.5,161.5C 85.1765,160.817 85.8432,159.483 85.5,157.5C 80.6392,157.049 75.9726,156.049 71.5,154.5C 71.8132,151.163 70.4799,148.829 67.5,147.5C 67.5,146.833 67.5,146.167 67.5,145.5 Z"/></g>
<g><path style="opacity:0.882" fill="#5b4939" d="M 197.5,159.5 C 198.167,159.5 198.833,159.5 199.5,159.5C 200.678,161.338 200.345,163.005 198.5,164.5C 195.718,165.058 192.718,166.224 189.5,168C 184.845,168.499 180.179,168.666 175.5,168.5C 175.739,170.467 175.406,172.301 174.5,174C 171.833,174.333 169.167,174.667 166.5,175C 162.794,178.285 158.794,181.118 154.5,183.5C 158.453,178.553 163.119,174.22 168.5,170.5C 169.386,169.675 169.719,168.675 169.5,167.5C 176.159,166.502 182.825,165.502 189.5,164.5C 192.021,163.312 194.355,161.978 196.5,160.5C 197.167,160.5 197.5,160.167 197.5,159.5 Z"/></g>
<g><path style="opacity:1" fill="#786f5b" d="M 105.5,162.5 C 108.713,162.19 111.713,162.523 114.5,163.5C 111.833,165.833 109.167,168.167 106.5,170.5C 106.649,169.448 106.483,168.448 106,167.5C 105.292,168.381 104.458,169.047 103.5,169.5C 103.884,167.071 104.551,164.737 105.5,162.5 Z"/></g>
<g><path style="opacity:0.953" fill="#70634b" d="M 196.5,160.5 C 194.355,161.978 192.021,163.312 189.5,164.5C 182.825,165.502 176.159,166.502 169.5,167.5C 177.622,162.218 186.622,159.885 196.5,160.5 Z"/></g>
<g><path style="opacity:1" fill="#49575e" d="M 55.5,163.5 C 57.0828,165.663 58.4161,167.996 59.5,170.5C 55.3902,170.701 51.7235,171.701 48.5,173.5C 46.8052,171.103 45.4718,168.437 44.5,165.5C 44.33,164.178 44.6634,163.011 45.5,162C 47.4856,162.794 49.3189,162.294 51,160.5C 52.487,161.253 52.6537,162.086 51.5,163C 52.7932,163.49 54.1266,163.657 55.5,163.5 Z"/></g>
<g><path style="opacity:1" fill="#dedfd4" d="M 200.5,134.5 C 201.919,133.549 203.585,133.216 205.5,133.5C 205.5,133.833 205.5,134.167 205.5,134.5C 204.069,137.767 201.736,140.267 198.5,142C 193.577,142.307 189.244,143.973 185.5,147C 179.024,148.238 173.357,151.071 168.5,155.5C 165.197,156.44 161.864,157.273 158.5,158C 154.378,160.454 150.045,162.454 145.5,164C 141.012,166.628 136.345,168.962 131.5,171C 129.957,173.948 127.79,174.782 125,173.5C 120.796,177.03 115.962,179.196 110.5,180C 108.282,182.276 105.615,183.776 102.5,184.5C 101.824,185.602 101.158,186.602 100.5,187.5C 99.6314,185.283 99.298,182.95 99.5,180.5C 100.832,176.838 102.165,173.172 103.5,169.5C 104.458,169.047 105.292,168.381 106,167.5C 106.483,168.448 106.649,169.448 106.5,170.5C 106.489,172.017 105.823,173.184 104.5,174C 104.833,174.167 105.167,174.333 105.5,174.5C 109.988,171.391 114.654,168.557 119.5,166C 133.792,161.386 147.458,156.052 160.5,150C 167.395,149.2 173.729,147.034 179.5,143.5C 187.953,141.96 195.953,139.127 203.5,135C 202.552,134.517 201.552,134.351 200.5,134.5 Z"/></g>
<g><path style="opacity:1" fill="#5e5b4b" d="M 220.5,156.5 C 219.266,161.883 217.266,166.883 214.5,171.5C 214.5,170.833 214.167,170.5 213.5,170.5C 215.163,165.839 216.829,161.173 218.5,156.5C 219.396,155.494 220.062,155.494 220.5,156.5 Z"/></g>
<g><path style="opacity:1" fill="#d6d7c7" d="M 205.5,134.5 C 205.806,137.385 205.473,140.052 204.5,142.5C 200.89,142.402 197.557,143.236 194.5,145C 197.482,145.498 200.482,145.665 203.5,145.5C 203.5,146.167 203.167,146.5 202.5,146.5C 181.013,155.576 160.013,165.743 139.5,177C 134.126,184.041 127.793,190.041 120.5,195C 119.251,195.74 118.251,195.573 117.5,194.5C 123.102,191.229 128.102,187.229 132.5,182.5C 135.239,180.666 136.573,178.332 136.5,175.5C 132.281,179.422 127.948,183.089 123.5,186.5C 119.477,189.2 115.477,191.867 111.5,194.5C 108.034,196.092 104.367,196.758 100.5,196.5C 99.5028,196.53 98.8361,196.03 98.5,195C 99.5375,192.872 100.871,191.872 102.5,192C 101.586,190.594 100.92,189.094 100.5,187.5C 101.158,186.602 101.824,185.602 102.5,184.5C 105.615,183.776 108.282,182.276 110.5,180C 115.962,179.196 120.796,177.03 125,173.5C 127.79,174.782 129.957,173.948 131.5,171C 136.345,168.962 141.012,166.628 145.5,164C 150.045,162.454 154.378,160.454 158.5,158C 161.864,157.273 165.197,156.44 168.5,155.5C 173.357,151.071 179.024,148.238 185.5,147C 189.244,143.973 193.577,142.307 198.5,142C 201.736,140.267 204.069,137.767 205.5,134.5 Z"/></g>
<g><path style="opacity:1" fill="#a9a78b" d="M 197.5,159.5 C 197.5,160.167 197.167,160.5 196.5,160.5C 186.622,159.885 177.622,162.218 169.5,167.5C 165.388,169.728 161.388,172.228 157.5,175C 150.206,180.626 143.206,186.626 136.5,193C 129.676,195.909 123.342,199.576 117.5,204C 114.691,205.741 111.691,206.908 108.5,207.5C 117.332,202.197 126.332,197.03 135.5,192C 136.743,190.846 137.743,189.512 138.5,188C 147.5,181 156.5,174 165.5,167C 175.426,161.302 186.093,158.802 197.5,159.5 Z"/></g>
<g><path style="opacity:0.8" fill="#091215" d="M 45.5,139.5 C 50.6973,140.566 55.6973,142.232 60.5,144.5C 59.8603,148.917 61.1936,152.583 64.5,155.5C 70.6309,158.047 76.9643,160.047 83.5,161.5C 82.9769,164.878 81.6435,167.878 79.5,170.5C 77.1891,173.147 74.8558,175.814 72.5,178.5C 73.1449,179.646 73.9783,180.646 75,181.5C 78.6584,178.934 82.1584,176.268 85.5,173.5C 88.0961,172.735 90.7628,172.401 93.5,172.5C 93.5608,176.049 92.7275,179.382 91,182.5C 86.5903,185.48 85.4237,189.48 87.5,194.5C 87.0431,195.298 86.3764,195.631 85.5,195.5C 79.8983,192.229 74.8983,188.229 70.5,183.5C 69.5,181.833 68.1667,180.5 66.5,179.5C 64.5179,176.19 62.1846,173.19 59.5,170.5C 58.4161,167.996 57.0828,165.663 55.5,163.5C 54.8916,160.673 53.8916,158.007 52.5,155.5C 51.2967,151.89 50.2967,148.223 49.5,144.5C 46.6592,144.44 43.9925,143.774 41.5,142.5C 41.5,141.5 41.5,140.5 41.5,139.5C 42.8333,139.5 44.1667,139.5 45.5,139.5 Z"/></g>
<g><path style="opacity:1" fill="#41362d" d="M 198.5,164.5 C 198.573,166.027 197.906,167.027 196.5,167.5C 196.565,167.062 196.399,166.728 196,166.5C 189.777,169.069 183.277,170.735 176.5,171.5C 178.5,173.833 180.5,176.167 182.5,178.5C 182.135,179.902 181.301,180.902 180,181.5C 177.511,179.681 175.011,177.848 172.5,176C 170.833,175.333 169.167,175.333 167.5,176C 163.401,181.298 158.401,185.131 152.5,187.5C 152.5,187.167 152.5,186.833 152.5,186.5C 152.932,185.29 153.599,184.29 154.5,183.5C 158.794,181.118 162.794,178.285 166.5,175C 169.167,174.667 171.833,174.333 174.5,174C 175.406,172.301 175.739,170.467 175.5,168.5C 180.179,168.666 184.845,168.499 189.5,168C 192.718,166.224 195.718,165.058 198.5,164.5 Z"/></g>
<g><path style="opacity:1" fill="#606974" d="M 59.5,170.5 C 62.1846,173.19 64.5179,176.19 66.5,179.5C 62.3077,179.892 58.641,181.226 55.5,183.5C 52.4208,180.743 50.0875,177.41 48.5,173.5C 51.7235,171.701 55.3902,170.701 59.5,170.5 Z"/></g>
<g><path style="opacity:1" fill="#555655" d="M 79.5,170.5 C 81.9699,170.654 83.9699,171.654 85.5,173.5C 82.1584,176.268 78.6584,178.934 75,181.5C 73.9783,180.646 73.1449,179.646 72.5,178.5C 74.8558,175.814 77.1891,173.147 79.5,170.5 Z"/></g>
<g><path style="opacity:1" fill="#a7a68d" d="M 132.5,182.5 C 132.565,182.062 132.399,181.728 132,181.5C 129.494,183.863 126.661,185.53 123.5,186.5C 127.948,183.089 132.281,179.422 136.5,175.5C 136.573,178.332 135.239,180.666 132.5,182.5 Z"/></g>
<g><path style="opacity:0.603" fill="#0f1514" d="M 196.5,167.5 C 195.601,170.395 194.267,173.062 192.5,175.5C 186.724,181.363 180.724,187.029 174.5,192.5C 170.298,195.432 165.965,198.098 161.5,200.5C 160.167,200.833 158.833,201.167 157.5,201.5C 154.794,201.575 152.127,201.908 149.5,202.5C 149.34,200.801 149.506,199.134 150,197.5C 152.167,196 154,194.167 155.5,192C 153.16,191.252 151.16,191.752 149.5,193.5C 149.025,190.687 150.025,188.687 152.5,187.5C 158.401,185.131 163.401,181.298 167.5,176C 169.167,175.333 170.833,175.333 172.5,176C 175.011,177.848 177.511,179.681 180,181.5C 181.301,180.902 182.135,179.902 182.5,178.5C 180.5,176.167 178.5,173.833 176.5,171.5C 183.277,170.735 189.777,169.069 196,166.5C 196.399,166.728 196.565,167.062 196.5,167.5 Z"/></g>
<g><path style="opacity:1" fill="#5d6a72" d="M 39.5,164.5 C 42.5495,171.597 46.3828,178.263 51,184.5C 53.09,187.428 55.59,189.761 58.5,191.5C 57.5,192.5 56.5,193.5 55.5,194.5C 52.8409,189.871 49.6742,185.538 46,181.5C 42.6792,176.526 40.1792,171.193 38.5,165.5C 38.5,164.833 38.8333,164.5 39.5,164.5 Z"/></g>
<g><path style="opacity:1" fill="#807b61" d="M 206.5,174.5 C 205.525,176.795 204.192,178.795 202.5,180.5C 202.631,179.624 202.298,178.957 201.5,178.5C 196.348,180.064 192.348,183.064 189.5,187.5C 188.205,188.098 186.872,188.598 185.5,189C 186.308,189.308 186.975,189.808 187.5,190.5C 184.852,191.973 183.185,194.14 182.5,197C 182.684,198.376 183.351,199.209 184.5,199.5C 182.469,201.522 180.135,203.189 177.5,204.5C 176.645,203.469 175.978,202.303 175.5,201C 176.533,198.229 177.2,195.063 177.5,191.5C 183.066,188.44 188.233,184.773 193,180.5C 193.483,179.552 193.649,178.552 193.5,177.5C 196.014,177.246 198.348,176.413 200.5,175C 202.063,174.241 203.063,173.074 203.5,171.5C 204.423,170.697 205.423,170.53 206.5,171C 205.829,171.986 205.829,173.153 206.5,174.5 Z"/></g>
<g><path style="opacity:1" fill="#12191b" d="M 69.5,198.5 C 75.6046,203.587 82.2712,207.92 89.5,211.5C 89.5774,212.75 90.244,213.583 91.5,214C 90.9056,214.464 90.2389,214.631 89.5,214.5C 81.028,211.1 73.3614,206.433 66.5,200.5C 63.6356,198.977 61.969,196.643 61.5,193.5C 62.552,193.351 63.552,193.517 64.5,194C 66.0375,195.707 67.7041,197.207 69.5,198.5 Z"/></g>
<g><path style="opacity:1" fill="#847b5f" d="M 99.5,180.5 C 99.298,182.95 99.6314,185.283 100.5,187.5C 100.92,189.094 101.586,190.594 102.5,192C 100.871,191.872 99.5375,192.872 98.5,195C 98.8361,196.03 99.5028,196.53 100.5,196.5C 99.791,197.404 98.791,197.737 97.5,197.5C 96.1764,194.864 96.1764,192.198 97.5,189.5C 97.0431,188.702 96.3764,188.369 95.5,188.5C 96.209,187.596 97.209,187.263 98.5,187.5C 98.1984,184.941 98.5318,182.607 99.5,180.5 Z"/></g>
<g><path style="opacity:1" fill="#a8a68e" d="M 111.5,194.5 C 110.942,195.79 109.942,196.623 108.5,197C 106.292,197.191 104.292,197.691 102.5,198.5C 100.585,198.784 98.9187,198.451 97.5,197.5C 98.791,197.737 99.791,197.404 100.5,196.5C 104.367,196.758 108.034,196.092 111.5,194.5 Z"/></g>
<g><path style="opacity:1" fill="#888063" d="M 132.5,182.5 C 128.102,187.229 123.102,191.229 117.5,194.5C 116.711,194.783 116.044,195.283 115.5,196C 116.737,196.232 117.737,196.732 118.5,197.5C 113.213,198.342 107.88,198.676 102.5,198.5C 104.292,197.691 106.292,197.191 108.5,197C 109.942,196.623 110.942,195.79 111.5,194.5C 115.477,191.867 119.477,189.2 123.5,186.5C 126.661,185.53 129.494,183.863 132,181.5C 132.399,181.728 132.565,182.062 132.5,182.5 Z"/></g>
<g><path style="opacity:1" fill="#615548" d="M 103.5,169.5 C 102.165,173.172 100.832,176.838 99.5,180.5C 98.5318,182.607 98.1984,184.941 98.5,187.5C 97.209,187.263 96.209,187.596 95.5,188.5C 92.7417,191.26 91.4084,194.593 91.5,198.5C 90.1917,199.232 88.8584,200.066 87.5,201C 89.9574,202.154 89.9574,203.488 87.5,205C 88.3366,206.011 88.67,207.178 88.5,208.5C 89.5,208.5 90.5,208.5 91.5,208.5C 91.5,209.5 91.5,210.5 91.5,211.5C 90.8333,211.5 90.1667,211.5 89.5,211.5C 82.2712,207.92 75.6046,203.587 69.5,198.5C 71.1033,198.688 72.4366,198.188 73.5,197C 72.8333,196.667 72.1667,196.333 71.5,196C 73.4324,194.648 74.7657,192.815 75.5,190.5C 73.0064,188.686 71.3397,186.353 70.5,183.5C 74.8983,188.229 79.8983,192.229 85.5,195.5C 86.2613,196.391 87.2613,197.058 88.5,197.5C 89.3236,194.215 89.8236,190.882 90,187.5C 92.0916,185.525 93.9249,183.525 95.5,181.5C 96.3764,181.631 97.0431,181.298 97.5,180.5C 98.0534,176.837 99.3867,173.504 101.5,170.5C 101.957,169.702 102.624,169.369 103.5,169.5 Z"/></g>
<g><path style="opacity:1" fill="#6f7978" d="M 66.5,179.5 C 68.1667,180.5 69.5,181.833 70.5,183.5C 71.3397,186.353 73.0064,188.686 75.5,190.5C 74.7657,192.815 73.4324,194.648 71.5,196C 72.1667,196.333 72.8333,196.667 73.5,197C 72.4366,198.188 71.1033,198.688 69.5,198.5C 67.7041,197.207 66.0375,195.707 64.5,194C 63.552,193.517 62.552,193.351 61.5,193.5C 61.969,196.643 63.6356,198.977 66.5,200.5C 66.6716,201.492 66.3382,202.158 65.5,202.5C 63.4836,200.652 61.317,198.985 59,197.5C 55.7602,199.875 52.5935,202.375 49.5,205C 47.9556,206.187 46.2889,206.52 44.5,206C 47.6689,201.665 51.3356,197.832 55.5,194.5C 56.5,193.5 57.5,192.5 58.5,191.5C 58.8039,190.85 59.1373,190.183 59.5,189.5C 57.7484,187.754 56.4151,185.754 55.5,183.5C 58.641,181.226 62.3077,179.892 66.5,179.5 Z"/></g>
<g><path style="opacity:1" fill="#d6d7c7" d="M 95.5,188.5 C 96.3764,188.369 97.0431,188.702 97.5,189.5C 96.1764,192.198 96.1764,194.864 97.5,197.5C 98.9187,198.451 100.585,198.784 102.5,198.5C 107.88,198.676 113.213,198.342 118.5,197.5C 123.068,196.102 123.402,196.602 119.5,199C 114.898,200.122 110.232,200.622 105.5,200.5C 105.552,203.537 104.552,206.204 102.5,208.5C 101.035,207.391 100.035,207.891 99.5,210C 98.552,210.483 97.552,210.649 96.5,210.5C 97.8319,204.975 96.1652,200.975 91.5,198.5C 91.4084,194.593 92.7417,191.26 95.5,188.5 Z"/></g>
<g><path style="opacity:1" fill="#cecdb7" d="M 202.5,146.5 C 202.282,151.038 201.282,155.371 199.5,159.5C 198.833,159.5 198.167,159.5 197.5,159.5C 186.093,158.802 175.426,161.302 165.5,167C 156.5,174 147.5,181 138.5,188C 137.743,189.512 136.743,190.846 135.5,192C 126.332,197.03 117.332,202.197 108.5,207.5C 105.902,210.051 102.735,211.718 99,212.5C 97.699,212.361 96.8656,211.695 96.5,210.5C 97.552,210.649 98.552,210.483 99.5,210C 100.035,207.891 101.035,207.391 102.5,208.5C 104.552,206.204 105.552,203.537 105.5,200.5C 110.232,200.622 114.898,200.122 119.5,199C 123.402,196.602 123.068,196.102 118.5,197.5C 117.737,196.732 116.737,196.232 115.5,196C 116.044,195.283 116.711,194.783 117.5,194.5C 118.251,195.573 119.251,195.74 120.5,195C 127.793,190.041 134.126,184.041 139.5,177C 160.013,165.743 181.013,155.576 202.5,146.5 Z"/></g>
<g><path style="opacity:1" fill="#8d8c71" d="M 213.5,170.5 C 214.167,170.5 214.5,170.833 214.5,171.5C 210.725,179.548 206.059,187.048 200.5,194C 203.82,197.989 207.153,201.989 210.5,206C 208.711,206.52 207.044,206.187 205.5,205C 202.5,202.5 199.5,200 196.5,197.5C 191.041,202.633 185.041,206.966 178.5,210.5C 177.833,210.5 177.5,210.167 177.5,209.5C 182.84,205.066 188.34,200.732 194,196.5C 194.601,195.035 194.101,194.035 192.5,193.5C 190.098,195.909 187.431,197.909 184.5,199.5C 183.351,199.209 182.684,198.376 182.5,197C 183.185,194.14 184.852,191.973 187.5,190.5C 186.975,189.808 186.308,189.308 185.5,189C 186.872,188.598 188.205,188.098 189.5,187.5C 192.348,183.064 196.348,180.064 201.5,178.5C 202.298,178.957 202.631,179.624 202.5,180.5C 200.573,183.767 198.239,186.767 195.5,189.5C 196.035,191.101 197.035,191.601 198.5,191C 204.136,184.546 209.136,177.712 213.5,170.5 Z"/></g>
<g><path style="opacity:1" fill="#746b54" d="M 203.5,171.5 C 203.063,173.074 202.063,174.241 200.5,175C 198.348,176.413 196.014,177.246 193.5,177.5C 193.649,178.552 193.483,179.552 193,180.5C 188.233,184.773 183.066,188.44 177.5,191.5C 177.2,195.063 176.533,198.229 175.5,201C 175.978,202.303 176.645,203.469 177.5,204.5C 176.71,205.401 175.71,206.068 174.5,206.5C 172.318,205.7 170.651,204.2 169.5,202C 171.891,200.691 171.891,199.691 169.5,199C 170.253,197.513 171.086,197.346 172,198.5C 173.559,196.783 174.392,194.783 174.5,192.5C 180.724,187.029 186.724,181.363 192.5,175.5C 195.829,173.34 199.496,172.006 203.5,171.5 Z"/></g>
<g><path style="opacity:1" fill="#42332b" d="M 149.5,193.5 C 145.663,199.504 142.663,205.837 140.5,212.5C 138.107,211.79 135.607,211.123 133,210.5C 130.209,213.273 128.375,212.607 127.5,208.5C 129.358,206.476 131.025,204.309 132.5,202C 137.593,200.618 141.926,197.951 145.5,194C 146.793,193.51 148.127,193.343 149.5,193.5 Z"/></g>
<g><path style="opacity:1" fill="#5e4d3d" d="M 174.5,192.5 C 174.392,194.783 173.559,196.783 172,198.5C 171.086,197.346 170.253,197.513 169.5,199C 171.891,199.691 171.891,200.691 169.5,202C 170.651,204.2 172.318,205.7 174.5,206.5C 168.444,210.522 161.778,213.189 154.5,214.5C 153.876,214.083 153.543,213.416 153.5,212.5C 154.36,210.728 155.693,209.395 157.5,208.5C 156.572,207.232 156.405,205.899 157,204.5C 158.667,203.267 160.167,201.933 161.5,200.5C 165.965,198.098 170.298,195.432 174.5,192.5 Z"/></g>
<g><path style="opacity:1" fill="#53473c" d="M 66.5,200.5 C 73.3614,206.433 81.028,211.1 89.5,214.5C 95.0742,217.469 101.074,219.469 107.5,220.5C 109.498,221.148 111.498,221.981 113.5,223C 94.9903,221.891 78.9903,215.057 65.5,202.5C 66.3382,202.158 66.6716,201.492 66.5,200.5 Z"/></g>
<g><path style="opacity:1" fill="#685642" d="M 169.5,167.5 C 169.719,168.675 169.386,169.675 168.5,170.5C 163.119,174.22 158.453,178.553 154.5,183.5C 153.599,184.29 152.932,185.29 152.5,186.5C 147.757,187.561 144.091,190.227 141.5,194.5C 135.496,197.835 129.496,201.168 123.5,204.5C 120.026,206.404 117.192,209.071 115,212.5C 114.094,210.388 112.594,209.555 110.5,210C 109.577,212.041 109.244,214.208 109.5,216.5C 107.833,216.5 106.167,216.5 104.5,216.5C 99.5574,216.187 95.224,214.52 91.5,211.5C 91.5,210.5 91.5,209.5 91.5,208.5C 90.5,208.5 89.5,208.5 88.5,208.5C 88.67,207.178 88.3366,206.011 87.5,205C 89.9574,203.488 89.9574,202.154 87.5,201C 88.8584,200.066 90.1917,199.232 91.5,198.5C 96.1652,200.975 97.8319,204.975 96.5,210.5C 96.8656,211.695 97.699,212.361 99,212.5C 102.735,211.718 105.902,210.051 108.5,207.5C 111.691,206.908 114.691,205.741 117.5,204C 123.342,199.576 129.676,195.909 136.5,193C 143.206,186.626 150.206,180.626 157.5,175C 161.388,172.228 165.388,169.728 169.5,167.5 Z"/></g>
<g><path style="opacity:1" fill="#4d3e33" d="M 161.5,200.5 C 160.167,201.933 158.667,203.267 157,204.5C 156.405,205.899 156.572,207.232 157.5,208.5C 155.693,209.395 154.36,210.728 153.5,212.5C 153.543,213.416 153.876,214.083 154.5,214.5C 151.592,216.605 148.258,217.605 144.5,217.5C 144.953,213.307 146.119,209.307 148,205.5C 151.291,204.243 154.458,202.91 157.5,201.5C 158.833,201.167 160.167,200.833 161.5,200.5 Z"/></g>
<g><path style="opacity:1" fill="#554032" d="M 152.5,186.5 C 152.5,186.833 152.5,187.167 152.5,187.5C 150.025,188.687 149.025,190.687 149.5,193.5C 148.127,193.343 146.793,193.51 145.5,194C 141.926,197.951 137.593,200.618 132.5,202C 131.025,204.309 129.358,206.476 127.5,208.5C 128.375,212.607 130.209,213.273 133,210.5C 135.607,211.123 138.107,211.79 140.5,212.5C 139.345,216.797 137.679,220.797 135.5,224.5C 135.5,223.5 135.5,222.5 135.5,221.5C 132.854,221.892 130.354,221.892 128,221.5C 125.688,223.16 123.188,223.993 120.5,224C 123.332,222.092 122.999,221.259 119.5,221.5C 119.5,222.5 119.5,223.5 119.5,224.5C 117.648,221.449 116.314,218.116 115.5,214.5C 114.167,214.5 112.833,214.5 111.5,214.5C 111.5,215.5 111.5,216.5 111.5,217.5C 108.941,217.802 106.607,217.468 104.5,216.5C 106.167,216.5 107.833,216.5 109.5,216.5C 109.244,214.208 109.577,212.041 110.5,210C 112.594,209.555 114.094,210.388 115,212.5C 117.192,209.071 120.026,206.404 123.5,204.5C 129.496,201.168 135.496,197.835 141.5,194.5C 144.091,190.227 147.757,187.561 152.5,186.5 Z"/></g>
<g><path style="opacity:1" fill="#2c2722" d="M 89.5,211.5 C 90.1667,211.5 90.8333,211.5 91.5,211.5C 95.224,214.52 99.5574,216.187 104.5,216.5C 106.607,217.468 108.941,217.802 111.5,217.5C 110.167,218.5 108.833,219.5 107.5,220.5C 101.074,219.469 95.0742,217.469 89.5,214.5C 90.2389,214.631 90.9056,214.464 91.5,214C 90.244,213.583 89.5774,212.75 89.5,211.5 Z"/></g>
<g><path style="opacity:1" fill="#524437" d="M 177.5,209.5 C 177.5,210.167 177.833,210.5 178.5,210.5C 170.756,215.368 162.423,219.201 153.5,222C 149.828,223.285 146.161,223.452 142.5,222.5C 154.703,219.544 166.37,215.211 177.5,209.5 Z"/></g>
<g><path style="opacity:0.004" fill="#000504" d="M 149.5,230.5 C 150.833,231.167 150.833,231.167 149.5,230.5 Z"/></g>
<g><path style="opacity:1" fill="#695947" d="M 135.5,224.5 C 134.326,230.743 132.659,236.743 130.5,242.5C 130.762,241.022 130.429,239.689 129.5,238.5C 127.241,238.784 125.574,239.784 124.5,241.5C 121.858,236.229 120.191,230.563 119.5,224.5C 119.5,223.5 119.5,222.5 119.5,221.5C 122.999,221.259 123.332,222.092 120.5,224C 123.188,223.993 125.688,223.16 128,221.5C 130.354,221.892 132.854,221.892 135.5,221.5C 135.5,222.5 135.5,223.5 135.5,224.5 Z"/></g>
<g><path style="opacity:1" fill="#828068" d="M 130.5,242.5 C 130.401,245.605 129.401,248.272 127.5,250.5C 125.441,247.962 124.441,244.962 124.5,241.5C 125.574,239.784 127.241,238.784 129.5,238.5C 130.429,239.689 130.762,241.022 130.5,242.5 Z"/></g>
</svg>
